<svg width="6945" height="5615" viewBox="0 0 6945 5615" fill="none" xmlns="http://www.w3.org/2000/svg">
<path d="M6475.62 1277.83H468.096C357.201 1277.83 267.303 1367.72 267.303 1478.62V5315.32C267.303 5426.22 357.201 5516.11 468.096 5516.11H6475.62C6586.52 5516.11 6676.42 5426.22 6676.42 5315.32V1478.62C6676.42 1367.72 6586.52 1277.83 6475.62 1277.83Z" fill="#0C0C0C"/>
<path d="M0.551263 5243.28H6944.24V5368.83C6944.24 5433.89 6918.4 5496.28 6872.39 5542.29C6826.39 5588.29 6763.99 5614.14 6698.93 5614.14H245.307C180.247 5614.14 117.853 5588.29 71.8486 5542.29C25.8447 5496.28 0 5433.89 0 5368.83V5243.28H0.551263Z" fill="#808080"/>
<path d="M2783 5243L2869.16 5341H4082.04L4162 5243H2783Z" fill="#282828"/>
<path d="M6422.7 1521.48H495.934C471.045 1521.48 450.869 1541.65 450.869 1566.54V5045.48C450.869 5070.37 471.045 5090.55 495.934 5090.55H6422.7C6447.59 5090.55 6467.77 5070.37 6467.77 5045.48V1566.54C6467.77 1541.65 6447.59 1521.48 6422.7 1521.48Z" fill="#1A1C21"/>
<path d="M6461.29 5095.79H444.391L450.868 1788.28H6461.29V5095.79Z" fill="#4C4C4C"/>
<path d="M944.375 1659.43C944.457 1668.96 941.706 1678.3 936.471 1686.26C931.236 1694.23 923.753 1700.45 914.972 1704.16C906.192 1707.86 896.508 1708.87 887.151 1707.07C877.794 1705.26 869.186 1700.71 862.418 1694C855.65 1687.29 851.028 1678.72 849.138 1669.38C847.249 1660.04 848.177 1650.35 851.805 1641.53C855.433 1632.72 861.597 1625.19 869.515 1619.88C877.433 1614.58 886.748 1611.75 896.279 1611.75C908.974 1611.71 921.167 1616.71 930.182 1625.65C939.198 1634.59 944.302 1646.73 944.375 1659.43Z" fill="#3DC257"/>
<path d="M653.178 1659.43C653.26 1668.98 650.498 1678.33 645.245 1686.3C639.991 1694.28 632.484 1700.51 623.679 1704.2C614.874 1707.89 605.169 1708.88 595.801 1707.03C586.433 1705.19 577.825 1700.6 571.073 1693.85C564.322 1687.1 559.733 1678.49 557.89 1669.12C556.048 1659.75 557.035 1650.05 560.727 1641.24C564.418 1632.44 570.647 1624.93 578.619 1619.68C586.592 1614.43 595.947 1611.66 605.495 1611.75C618.119 1611.82 630.205 1616.87 639.132 1625.79C648.059 1634.72 653.106 1646.81 653.178 1659.43Z" fill="#C23D3D"/>
<path d="M792.92 1659.43C792.92 1668.94 790.099 1678.24 784.814 1686.15C779.529 1694.06 772.018 1700.22 763.229 1703.86C754.441 1707.5 744.77 1708.46 735.44 1706.6C726.11 1704.75 717.54 1700.16 710.814 1693.44C704.087 1686.71 699.507 1678.14 697.651 1668.81C695.795 1659.48 696.747 1649.81 700.388 1641.02C704.028 1632.23 710.193 1624.72 718.102 1619.44C726.012 1614.15 735.311 1611.33 744.823 1611.33C751.144 1611.31 757.407 1612.55 763.251 1614.96C769.094 1617.37 774.403 1620.91 778.873 1625.38C783.343 1629.85 786.885 1635.16 789.296 1641C791.706 1646.85 792.938 1653.11 792.92 1659.43Z" fill="#404040"/>
<path d="M6467.77 4776.34H444.391V5095.79H6467.77V4776.34Z" fill="#263238"/>
<path d="M672.058 4973V4983.19H624.099V4975.2L649.87 4950.67C656.209 4944.61 657.312 4940.75 657.312 4936.89C657.312 4930.96 653.177 4927.52 645.184 4927.52C642.303 4927.36 639.426 4927.89 636.79 4929.06C634.154 4930.24 631.835 4932.02 630.025 4934.27L621.48 4927.79C624.502 4924.2 628.315 4921.37 632.619 4919.5C636.924 4917.64 641.602 4916.79 646.287 4917.04C660.068 4917.04 669.577 4924.07 669.577 4935.65C669.487 4939.68 668.455 4943.64 666.565 4947.21C664.675 4950.77 661.978 4953.84 658.69 4956.18L641.326 4972.72L672.058 4973Z" fill="white"/>
<path d="M678.536 4940.75C678.536 4939.22 678.992 4937.72 679.846 4936.45C680.701 4935.17 681.914 4934.19 683.333 4933.61C684.751 4933.03 686.309 4932.88 687.81 4933.19C689.311 4933.5 690.686 4934.25 691.759 4935.34C692.833 4936.43 693.557 4937.82 693.839 4939.33C694.121 4940.83 693.948 4942.39 693.343 4943.8C692.738 4945.21 691.727 4946.4 690.44 4947.23C689.153 4948.06 687.647 4948.49 686.115 4948.47C685.103 4948.48 684.097 4948.3 683.16 4947.91C682.222 4947.53 681.373 4946.96 680.663 4946.24C679.953 4945.52 679.399 4944.66 679.033 4943.71C678.667 4942.77 678.498 4941.76 678.536 4940.75ZM678.536 4976.17C678.389 4975.07 678.477 4973.97 678.794 4972.91C679.112 4971.86 679.65 4970.88 680.375 4970.06C681.099 4969.23 681.992 4968.56 682.994 4968.11C683.996 4967.65 685.084 4967.42 686.184 4967.42C687.285 4967.42 688.372 4967.65 689.374 4968.11C690.376 4968.56 691.269 4969.23 691.994 4970.06C692.718 4970.88 693.257 4971.86 693.574 4972.91C693.891 4973.97 693.98 4975.07 693.833 4976.17C693.98 4977.26 693.891 4978.37 693.574 4979.42C693.257 4980.47 692.718 4981.45 691.994 4982.27C691.269 4983.1 690.376 4983.77 689.374 4984.22C688.372 4984.68 687.285 4984.91 686.184 4984.91C685.084 4984.91 683.996 4984.68 682.994 4984.22C681.992 4983.77 681.099 4983.1 680.375 4982.27C679.65 4981.45 679.112 4980.47 678.794 4979.42C678.477 4978.37 678.389 4977.26 678.536 4976.17Z" fill="white"/>
<path d="M724.013 4918.15V4983.19H712.023V4928.07H698.242V4917.87L724.013 4918.15Z" fill="white"/>
<path d="M794.986 4968.45H783.41V4983.19H771.695V4968.45H736.002V4960.59L768.112 4919.25H781.067L750.748 4959.35H772.109V4946.26H783.41V4959.35H794.986V4968.45Z" fill="white"/>
<path d="M5838.24 4942.4H901.24V4964.86H5838.24V4942.4Z" fill="white"/>
<path d="M2440.33 4918.28H897.52V4978.37H2440.33V4918.28Z" fill="#FF725E"/>
<path d="M2490.22 4953.7C2490.22 4968.56 2485.81 4983.08 2477.56 4995.43C2469.31 5007.78 2457.58 5017.41 2443.85 5023.09C2430.13 5028.78 2415.03 5030.26 2400.46 5027.37C2385.89 5024.47 2372.51 5017.32 2362 5006.81C2351.5 4996.31 2344.35 4982.92 2341.45 4968.35C2338.55 4953.78 2340.04 4938.68 2345.72 4924.96C2351.41 4911.23 2361.03 4899.51 2373.38 4891.25C2385.74 4883 2400.26 4878.59 2415.11 4878.59C2435.03 4878.59 2454.14 4886.51 2468.22 4900.59C2482.31 4914.68 2490.22 4933.78 2490.22 4953.7Z" fill="#FF725E"/>
<path d="M5962.55 4953.01C5962.52 4956.01 5961.87 4958.98 5960.64 4961.71C5959.41 4964.45 5957.62 4966.9 5955.39 4968.91C5953.16 4970.92 5950.54 4972.44 5947.69 4973.38C5944.84 4974.32 5941.83 4974.66 5938.84 4974.37C5921.06 4974.37 5911.28 4962.94 5911.28 4941.99C5910.73 4937.54 5911.17 4933.02 5912.54 4928.76C5913.92 4924.49 5916.21 4920.58 5919.25 4917.28C5922.29 4913.99 5926.02 4911.4 5930.16 4909.7C5934.31 4907.99 5938.77 4907.2 5943.25 4907.4C5949.23 4907.25 5955.14 4908.73 5960.34 4911.67L5955.79 4920.76C5952.12 4918.5 5947.84 4917.4 5943.53 4917.59C5931.26 4917.59 5923.54 4925.17 5923.54 4939.92C5925.77 4937.6 5928.48 4935.79 5931.48 4934.62C5934.48 4933.45 5937.7 4932.96 5940.91 4933.17C5943.65 4932.98 5946.4 4933.35 5948.99 4934.26C5951.58 4935.17 5953.96 4936.59 5955.98 4938.45C5958.01 4940.31 5959.63 4942.55 5960.76 4945.06C5961.89 4947.56 5962.5 4950.27 5962.55 4953.01ZM5950.83 4953.01C5950.83 4946.26 5945.73 4941.99 5937.88 4941.99C5936.22 4941.71 5934.53 4941.79 5932.91 4942.22C5931.29 4942.65 5929.78 4943.41 5928.48 4944.47C5927.17 4945.52 5926.11 4946.84 5925.35 4948.34C5924.6 4949.84 5924.17 4951.48 5924.1 4953.15C5924.1 4959.21 5928.92 4964.04 5937.88 4964.04C5939.43 4964.29 5941.02 4964.22 5942.54 4963.81C5944.06 4963.41 5945.48 4962.69 5946.7 4961.7C5947.92 4960.71 5948.92 4959.48 5949.64 4958.07C5950.35 4956.67 5950.76 4955.13 5950.83 4953.56V4953.01Z" fill="white"/>
<path d="M5968.47 4930.69C5968.33 4929.6 5968.41 4928.49 5968.73 4927.43C5969.05 4926.38 5969.59 4925.41 5970.31 4924.58C5971.04 4923.75 5971.93 4923.09 5972.93 4922.63C5973.93 4922.18 5975.02 4921.94 5976.12 4921.94C5977.22 4921.94 5978.31 4922.18 5979.31 4922.63C5980.31 4923.09 5981.21 4923.75 5981.93 4924.58C5982.66 4925.41 5983.19 4926.38 5983.51 4927.43C5983.83 4928.49 5983.92 4929.6 5983.77 4930.69C5983.92 4931.78 5983.83 4932.89 5983.51 4933.94C5983.19 4935 5982.66 4935.97 5981.93 4936.8C5981.21 4937.63 5980.31 4938.29 5979.31 4938.74C5978.31 4939.2 5977.22 4939.43 5976.12 4939.43C5975.02 4939.43 5973.93 4939.2 5972.93 4938.74C5971.93 4938.29 5971.04 4937.63 5970.31 4936.8C5969.59 4935.97 5969.05 4935 5968.73 4933.94C5968.41 4932.89 5968.33 4931.78 5968.47 4930.69ZM5968.47 4966.11C5968.33 4965.01 5968.41 4963.91 5968.73 4962.85C5969.05 4961.8 5969.59 4960.82 5970.31 4960C5971.04 4959.17 5971.93 4958.5 5972.93 4958.05C5973.93 4957.59 5975.02 4957.36 5976.12 4957.36C5977.22 4957.36 5978.31 4957.59 5979.31 4958.05C5980.31 4958.5 5981.21 4959.17 5981.93 4960C5982.66 4960.82 5983.19 4961.8 5983.51 4962.85C5983.83 4963.91 5983.92 4965.01 5983.77 4966.11C5983.92 4967.2 5983.83 4968.31 5983.51 4969.36C5983.19 4970.41 5982.66 4971.39 5981.93 4972.21C5981.21 4973.04 5980.31 4973.71 5979.31 4974.16C5978.31 4974.62 5977.22 4974.85 5976.12 4974.85C5975.02 4974.85 5973.93 4974.62 5972.93 4974.16C5971.93 4973.71 5971.04 4973.04 5970.31 4972.21C5969.59 4971.39 5969.05 4970.41 5968.73 4969.36C5968.41 4968.31 5968.33 4967.2 5968.47 4966.11Z" fill="white"/>
<path d="M5991.49 4940.61C5991.49 4919.25 6003.2 4907.12 6019.05 4907.12C6034.9 4907.12 6046.61 4919.25 6046.61 4940.61C6046.61 4961.97 6034.9 4974.1 6019.05 4974.1C6003.2 4974.1 5991.49 4961.97 5991.49 4940.61ZM6033.66 4940.61C6033.66 4924.9 6027.59 4917.73 6018.64 4917.73C6009.68 4917.73 6003.62 4924.9 6003.62 4940.61C6003.62 4956.32 6009.82 4963.62 6018.64 4963.62C6027.46 4963.62 6033.66 4956.32 6033.66 4940.61Z" fill="white"/>
<path d="M6053.92 4940.61C6053.92 4919.25 6065.63 4907.12 6081.48 4907.12C6097.33 4907.12 6109.04 4919.25 6109.04 4940.61C6109.04 4961.97 6097.33 4974.1 6081.48 4974.1C6065.63 4974.1 6053.92 4961.97 6053.92 4940.61ZM6096.22 4940.61C6096.22 4924.9 6090.02 4917.73 6081.07 4917.73C6072.11 4917.73 6066.18 4924.9 6066.18 4940.61C6066.18 4956.32 6072.25 4963.62 6081.07 4963.62C6089.89 4963.62 6096.22 4956.32 6096.22 4940.61Z" fill="white"/>
<path d="M6213.5 4936.61H6190.9V4871.7H6255.81V4894.17H6213.5V4936.61Z" fill="white"/>
<path d="M6255.81 5021.23H6190.9V4956.46H6213.37V4998.77H6255.81V5021.23Z" fill="white"/>
<path d="M6359.17 5021.23H6294.4V4998.77H6336.57V4956.32H6359.17V5021.23Z" fill="white"/>
<path d="M6359.17 4936.48H6336.71V4894.17H6294.26V4871.7H6359.17V4936.48Z" fill="white"/>
<path d="M1269.61 1984.94H914.883L737.656 2292.13L914.883 2599.17H1269.61L1446.84 2292.13L1269.61 1984.94Z" fill="#EBEBEB"/>
<path d="M943.824 2352.21C927.333 2335.26 912.816 2316.49 900.551 2296.26C888.186 2275.85 882.996 2251.88 885.805 2228.18C889.526 2214.9 892.516 2201.42 894.763 2187.8C896.141 2168.78 888.148 2148.94 894.763 2131.16C905.237 2103.6 942.584 2099.05 965.323 2079.89C982.963 2064.87 991.645 2040.62 1011.08 2028.08C1029.12 2018.52 1049.98 2015.69 1069.92 2020.08C1089.65 2024.63 1109.93 2026.39 1130.15 2025.32C1144.12 2022.33 1157.92 2018.6 1171.49 2014.16C1185.14 2009.87 1199.91 2010.9 1212.83 2017.05C1219.15 2020.5 1223.86 2026.28 1225.97 2033.15C1228.08 2040.03 1227.42 2047.45 1224.14 2053.85C1247.43 2043.1 1276.92 2061.29 1283.26 2085.96C1285.69 2098.59 1284.54 2111.64 1279.93 2123.65C1275.33 2135.65 1267.46 2146.13 1257.21 2153.9C1236.59 2169.26 1212.41 2179.13 1186.93 2182.57C1115.68 2196.35 1038.5 2188.49 977.175 2149.9" fill="#263238"/>
<path d="M1272.64 2428.01C1270.3 2384.05 1258.04 2293.92 1245.91 2212.47C1239.64 2170.28 1217.74 2131.98 1184.55 2105.18C1151.37 2078.38 1109.32 2065.02 1066.75 2067.77H1057.93C963.668 2079.62 921.084 2166.3 935.555 2260.71L963.117 2599.04H1193.26C1193.26 2599.04 1187.75 2539.64 1187.75 2539.09C1187.75 2538.54 1277.61 2518.97 1272.64 2428.01Z" fill="#FFBE9D"/>
<path d="M1187.62 2537.98C1145.67 2541.52 1103.61 2532.55 1066.75 2512.21C1066.75 2512.21 1099.28 2575.75 1189.41 2561.55L1187.62 2537.98Z" fill="#EB996E"/>
<path d="M1216.55 2290.47C1216.82 2293.83 1215.76 2297.16 1213.59 2299.74C1211.43 2302.32 1208.33 2303.94 1204.98 2304.25C1203.37 2304.47 1201.73 2304.36 1200.16 2303.93C1198.59 2303.5 1197.12 2302.77 1195.84 2301.76C1194.56 2300.76 1193.48 2299.52 1192.69 2298.1C1191.89 2296.68 1191.38 2295.12 1191.2 2293.5C1190.96 2290.16 1192.04 2286.85 1194.2 2284.28C1196.36 2281.7 1199.43 2280.07 1202.77 2279.72C1204.39 2279.51 1206.02 2279.62 1207.59 2280.05C1209.16 2280.48 1210.63 2281.21 1211.91 2282.21C1213.2 2283.21 1214.27 2284.46 1215.06 2285.88C1215.86 2287.3 1216.37 2288.86 1216.55 2290.47Z" fill="#263238"/>
<path d="M1229.37 2258.22C1227.86 2260.02 1217.52 2253.4 1203.46 2254.37C1189.41 2255.33 1179.76 2263.05 1178.11 2261.39C1176.45 2259.74 1178.11 2257.54 1183.07 2253.95C1188.83 2249.39 1195.85 2246.7 1203.19 2246.23C1210.46 2245.71 1217.71 2247.55 1223.86 2251.47C1228.41 2254.5 1230.06 2257.4 1229.37 2258.22Z" fill="#263238"/>
<path d="M1084.53 2299.98C1084.57 2303.29 1083.43 2306.49 1081.3 2309.02C1079.18 2311.55 1076.22 2313.24 1072.95 2313.76C1069.69 2314.11 1066.42 2313.17 1063.84 2311.14C1061.26 2309.1 1059.59 2306.13 1059.17 2302.88C1059.13 2299.57 1060.28 2296.36 1062.4 2293.84C1064.53 2291.31 1067.49 2289.62 1070.75 2289.1C1074.01 2288.74 1077.29 2289.69 1079.86 2291.72C1082.44 2293.76 1084.12 2296.72 1084.53 2299.98Z" fill="#263238"/>
<path d="M1092.11 2270.08C1090.6 2271.87 1080.26 2265.25 1066.2 2266.22C1052.15 2267.18 1042.5 2274.76 1040.84 2273.25C1039.19 2271.73 1040.84 2269.39 1045.81 2265.81C1051.58 2261.14 1058.66 2258.38 1066.06 2257.92C1073.47 2257.45 1080.84 2259.29 1087.15 2263.19C1091.15 2266.22 1092.8 2269.25 1092.11 2270.08Z" fill="#263238"/>
<path d="M1149.72 2369.72C1156.93 2366.89 1164.48 2364.99 1172.18 2364.06C1175.76 2364.06 1179.07 2362.55 1179.48 2360.07C1179.54 2356.4 1178.48 2352.79 1176.45 2349.73L1164.05 2323.27C1152.76 2301.08 1143.22 2278.04 1135.52 2254.37C1148.67 2275.78 1160.05 2298.23 1169.56 2321.48C1173.7 2330.71 1177.69 2339.67 1181.55 2348.08C1183.96 2352.25 1184.93 2357.09 1184.31 2361.86C1183.85 2363.15 1183.13 2364.32 1182.17 2365.29C1181.22 2366.27 1180.07 2367.03 1178.79 2367.51C1176.83 2368.15 1174.79 2368.57 1172.73 2368.75C1165.13 2370.05 1157.4 2370.38 1149.72 2369.72Z" fill="#263238"/>
<path d="M1091.97 2214.95C1090.87 2218.81 1076.81 2217.98 1060.55 2221.15C1044.29 2224.32 1031.33 2229.56 1028.85 2226.25C1026.37 2222.94 1029.96 2221.02 1035.06 2216.88C1041.84 2211.84 1049.73 2208.49 1058.07 2207.1C1066.36 2205.46 1074.93 2205.89 1083.01 2208.34C1089.22 2210.4 1092.52 2213.16 1091.97 2214.95Z" fill="#263238"/>
<path d="M1221.52 2218.12C1219.17 2221.43 1209.39 2218.81 1197.81 2219.36C1186.24 2219.91 1176.59 2222.94 1174.11 2219.36C1171.63 2215.78 1174.11 2214.54 1178.38 2211.23C1183.84 2207.14 1190.44 2204.87 1197.26 2204.75C1204.06 2204.45 1210.79 2206.23 1216.56 2209.85C1220.83 2213.3 1222.48 2216.47 1221.52 2218.12Z" fill="#263238"/>
<path d="M947.269 2328.37C945.615 2328.37 883.462 2314.59 889.663 2376.19C895.865 2437.79 963.118 2417.54 962.98 2416.16C962.842 2414.78 947.269 2328.37 947.269 2328.37Z" fill="#FFBE9D"/>
<path d="M935.417 2395.21C935.417 2395.21 934.452 2396.04 932.798 2397C930.317 2398.37 927.4 2398.72 924.667 2397.97C920.406 2395.84 916.792 2392.6 914.2 2388.6C911.607 2384.61 910.13 2379.99 909.921 2375.23C909.204 2369.94 909.723 2364.57 911.437 2359.52C911.794 2357.49 912.649 2355.59 913.924 2353.98C915.199 2352.37 916.854 2351.1 918.741 2350.28C919.947 2349.87 921.256 2349.88 922.457 2350.3C923.657 2350.73 924.679 2351.55 925.356 2352.63C926.459 2354.28 926.183 2355.66 926.459 2355.66C926.734 2355.66 927.699 2354.56 926.459 2351.94C925.96 2350.47 924.991 2349.21 923.703 2348.35C922.791 2347.78 921.769 2347.39 920.702 2347.23C919.635 2347.06 918.545 2347.12 917.501 2347.39C915.017 2348.17 912.768 2349.57 910.963 2351.45C909.157 2353.33 907.851 2355.63 907.165 2358.14C905.098 2363.78 904.436 2369.83 905.236 2375.78C905.388 2381.34 907.22 2386.73 910.492 2391.23C913.763 2395.73 918.321 2399.14 923.565 2401C925.288 2401.31 927.059 2401.24 928.751 2400.79C930.443 2400.34 932.013 2399.51 933.349 2398.38C936.243 2397.28 936.244 2395.21 935.417 2395.21Z" fill="#EB996E"/>
<path d="M1241.36 2127.44C1237.09 2152.11 1186.93 2174.85 1144.89 2173.61C1106.58 2172.51 1087.56 2153.49 1059.86 2139.98C1042.22 2131.44 1042.22 2131.44 1018.52 2135.3C999.225 2138.47 989.165 2161.2 978.415 2177.6C999.087 2222.67 990.68 2275.04 981.86 2323.82C981.52 2329.3 979.334 2334.5 975.659 2338.57C971.688 2341.01 966.984 2341.97 962.373 2341.29C957.761 2340.61 953.537 2338.33 950.439 2334.85C940.242 2323.88 933.445 2310.19 930.87 2295.43C922.189 2262.49 920.128 2228.16 924.806 2194.42C929.377 2160.66 943.752 2128.99 966.15 2103.32C995.68 2072.2 1036.15 2053.76 1079.02 2051.92C1121.7 2050.34 1163.8 2062.25 1199.33 2085.96C1216.28 2096.16 1230.47 2110.35 1240.67 2127.3" fill="#263238"/>
<path d="M1158.95 2401.69L1127.25 2386.94C1125.5 2385.94 1123.49 2385.46 1121.47 2385.56C1119.26 2386.06 1117.33 2387.39 1116.09 2389.29C1112.37 2393.7 1110.05 2399.13 1109.41 2404.87C1108.77 2410.61 1109.85 2416.41 1112.51 2421.53C1115.4 2426.56 1119.97 2430.4 1125.41 2432.39C1130.85 2434.38 1136.82 2434.39 1142.28 2432.42C1147.6 2429.49 1152.04 2425.18 1155.12 2419.94C1158.2 2414.7 1159.81 2408.73 1159.78 2402.65L1158.95 2401.69Z" fill="#EB996E"/>
<path d="M1142.96 2434.76C1142.96 2434.76 1136.35 2439.86 1124.36 2436.42C1117.36 2434.04 1111.51 2429.12 1107.96 2422.64C1105.71 2418.74 1104.35 2414.4 1103.99 2409.92C1103.64 2405.43 1104.28 2400.93 1105.89 2396.73C1107.58 2392.34 1110.21 2388.39 1113.61 2385.15C1115.26 2383.63 1117.06 2382.29 1118.98 2381.15C1120.26 2380.48 1121.68 2380.13 1123.12 2380.12C1124.56 2380.13 1125.98 2380.48 1127.25 2381.15C1134.56 2385.15 1139.38 2388.6 1144.2 2391.63C1153.44 2397.83 1158.95 2402.1 1157.99 2402.93C1157.02 2403.76 1151.09 2401.14 1141.17 2396.04L1124.22 2387.22C1122.98 2387.22 1123.12 2387.22 1121.74 2387.22C1120.36 2388.15 1119.06 2389.21 1117.88 2390.39C1115.29 2392.94 1113.31 2396.05 1112.09 2399.48C1110.86 2402.73 1110.32 2406.19 1110.51 2409.66C1110.7 2413.13 1111.62 2416.51 1113.2 2419.6C1115.88 2424.8 1120.26 2428.93 1125.6 2431.32C1135.94 2435.73 1142.96 2433.52 1142.96 2434.76Z" fill="#263238"/>
<path d="M1133.18 2291.99C1133.18 2291.99 1133.18 2286.34 1129.87 2276.55C1125.88 2262.9 1117.5 2250.93 1106.03 2242.51C1096.85 2235.68 1085.95 2231.54 1074.54 2230.55C1063.14 2229.56 1051.69 2231.75 1041.46 2236.89C1031.24 2242.03 1022.64 2249.91 1016.64 2259.65C1010.63 2269.39 1007.45 2280.61 1007.45 2292.06C1007.45 2303.5 1010.63 2314.72 1016.64 2324.46C1022.64 2334.2 1031.24 2342.08 1041.46 2347.22C1051.69 2352.36 1063.14 2354.56 1074.54 2353.56C1085.95 2352.57 1096.85 2348.43 1106.03 2341.6C1117.5 2333.18 1125.88 2321.22 1129.87 2307.56C1132.63 2297.78 1132.49 2291.99 1133.18 2291.99C1133.87 2291.99 1133.18 2293.5 1133.18 2296.26C1133.27 2300.29 1132.85 2304.32 1131.94 2308.25C1128.84 2323.06 1120.59 2336.3 1108.65 2345.6C1099.72 2352.56 1089.19 2357.18 1078.01 2359.01C1066.84 2360.84 1055.39 2359.83 1044.7 2356.07C1031.49 2351.37 1020.05 2342.69 1011.96 2331.23C1003.87 2319.77 999.527 2306.09 999.527 2292.06C999.527 2278.03 1003.87 2264.34 1011.96 2252.88C1020.05 2241.42 1031.49 2232.74 1044.7 2228.04C1055.39 2224.29 1066.84 2223.28 1078.01 2225.11C1089.19 2226.94 1099.72 2231.55 1108.65 2238.52C1120.59 2247.82 1128.84 2261.05 1131.94 2275.86C1132.86 2279.79 1133.27 2283.82 1133.18 2287.85C1133.59 2290.61 1133.45 2291.99 1133.18 2291.99Z" fill="#263238"/>
<path d="M1287.94 2285.93C1287.25 2285.93 1287.94 2280.41 1284.63 2270.9C1280.77 2257.63 1272.63 2246 1261.48 2237.83C1252.54 2231.19 1241.94 2227.16 1230.84 2226.2C1219.75 2225.24 1208.61 2227.38 1198.66 2232.38C1188.71 2237.38 1180.35 2245.05 1174.5 2254.53C1168.66 2264.01 1165.57 2274.93 1165.57 2286.06C1165.57 2297.2 1168.66 2308.11 1174.5 2317.59C1180.35 2327.07 1188.71 2334.74 1198.66 2339.74C1208.61 2344.75 1219.75 2346.89 1230.84 2345.92C1241.94 2344.96 1252.54 2340.94 1261.48 2334.3C1272.63 2326.13 1280.77 2314.5 1284.63 2301.22C1287.39 2291.71 1287.25 2286.06 1287.94 2286.06C1288.63 2286.06 1287.94 2287.44 1287.94 2290.2C1288.02 2294.13 1287.65 2298.06 1286.84 2301.91C1283.76 2316.33 1275.71 2329.21 1264.1 2338.29C1255.39 2345.11 1245.11 2349.61 1234.19 2351.4C1223.28 2353.18 1212.1 2352.18 1201.67 2348.49C1188.79 2343.89 1177.65 2335.43 1169.78 2324.25C1161.9 2313.08 1157.67 2299.74 1157.67 2286.06C1157.67 2272.39 1161.9 2259.05 1169.78 2247.87C1177.65 2236.7 1188.79 2228.23 1201.67 2223.63C1212.1 2219.95 1223.28 2218.95 1234.19 2220.73C1245.11 2222.51 1255.39 2227.02 1264.1 2233.83C1275.72 2242.97 1283.77 2255.89 1286.84 2270.35C1287.66 2274.2 1288.03 2278.13 1287.94 2282.07C1288.36 2284.55 1288.22 2285.93 1287.94 2285.93Z" fill="#263238"/>
<path d="M1161.71 2271.73C1160.33 2272.97 1154.13 2268.97 1145.86 2269.25C1137.59 2269.53 1132.08 2273.52 1130.15 2272.28C1128.22 2271.04 1134.01 2262.36 1145.72 2262.08C1157.43 2261.81 1163.5 2270.63 1161.71 2271.73Z" fill="#263238"/>
<path d="M1007.49 2282.89C1008.73 2284.41 996.606 2295.43 980.62 2307.42C971.58 2315.67 960.994 2322.04 949.474 2326.17C948.234 2324.65 960.361 2313.63 976.347 2301.64C985.365 2293.36 995.957 2286.99 1007.49 2282.89Z" fill="#263238"/>
<path d="M2367 2363C2367 2364.93 1872.68 2367.09 1768.22 2367.09C1663.76 2367.09 1579.14 2365.44 1579.14 2363.51C1579.14 2361.58 1663.76 2359.79 1768.22 2359.79C1872.68 2359.79 2367 2360.93 2367 2363Z" fill="white"/>
<path d="M2360.16 2839.52C2297.78 2875 2243.05 2922.5 2199.14 2979.27C2155.24 3036.05 2123.03 3100.97 2104.38 3170.27C2037.82 3408.41 1834.27 4028.57 1834.27 4028.57C1834.27 4028.57 1717.96 4165.41 1705.55 4266.71C1693.15 4368 1717.96 4613.17 1755.44 4658.92C1766.3 4672.2 1780.23 4682.62 1796.04 4689.27C1811.85 4695.92 1829.04 4698.61 1846.12 4697.1L2335.77 4650.65L2528.71 3359.62L2360.16 2839.52Z" fill="#233861"/>
<path d="M3979.19 2817.06C3979.19 2817.06 4329.37 2927.31 4416.6 3022.4L4129.95 4355.87L4135.05 4776.75H2474.69C2474.69 4755.94 2459.8 3379.61 2459.8 3379.61L2360.16 2839.52L2949.86 2735.75L3066.18 2644.24L3722.58 2677.59L3822.36 2777.23L3979.19 2817.06Z" fill="#233861"/>
<g opacity="0.3">
<path d="M3845.65 3973.99C3850.74 3962.69 3858.19 3950.43 3870.31 3947.95C3890.3 3943.81 3903.66 3967.38 3910.42 3986.67C3963.36 4137.84 4036.71 4281.07 4128.44 4412.37L4132.71 4617.16C4036.24 4535.72 3940.6 4448.48 3878.86 4338.09C3817.12 4227.71 3794.1 4089.2 3845.65 3973.99Z" fill="black"/>
</g>
<path d="M4416.6 3022.34C4416.6 3022.34 4531.95 3179.59 4579.77 3282.26C4627.59 3384.93 5024.63 4246.95 5048.34 4336.11C5072.04 4425.28 5133.78 4705.59 4952.56 4770.63H4579.5L4205.2 4013.63L4186.04 3135.07L4416.6 3022.34Z" fill="#233861"/>
<path d="M4555.93 4223.85C4555.93 4223.85 4564.2 4216.54 4581.43 4206.76C4606.01 4193.57 4632.38 4184.01 4659.7 4178.37C4678.49 4174.25 4697.56 4171.58 4716.76 4170.38C4738.87 4168.71 4761.11 4170.29 4782.77 4175.06C4831.79 4187.65 4875.68 4215.2 4908.32 4253.89C4941.51 4292.14 4965.79 4337.28 4979.43 4386.05C4990.68 4425.92 4998.16 4466.75 5001.75 4508.02C5005.34 4543.3 5006.58 4572.1 5007.82 4591.81C5007.82 4601.18 5008.92 4608.76 5009.2 4614.68C5009.19 4617.39 5009.56 4620.08 5010.3 4622.68C5010.48 4620.02 5010.48 4617.34 5010.3 4614.68C5010.3 4608.62 5010.3 4600.9 5010.3 4591.81C5010.3 4571.82 5009.47 4543.16 5006.58 4507.6C5003.66 4465.66 4996.6 4424.12 4985.49 4383.57C4971.95 4333.7 4947.31 4287.53 4913.42 4248.51C4879.76 4208.75 4834.43 4180.59 4783.87 4168.03C4761.77 4163.43 4739.1 4162.18 4716.62 4164.31C4697.16 4165.74 4677.85 4168.74 4658.88 4173.27C4631.25 4179.41 4604.74 4189.83 4580.32 4204.14C4573.75 4208.2 4567.52 4212.81 4561.72 4217.92C4559.58 4219.69 4557.64 4221.67 4555.93 4223.85Z" fill="#263238"/>
<path d="M4732.74 4073.08C4728.67 4071.89 4724.45 4071.24 4720.2 4071.15C4708.69 4070.25 4697.13 4070.25 4685.61 4071.15C4668.47 4072.16 4651.45 4074.69 4634.76 4078.73C4593.69 4088.66 4555.15 4107.06 4521.62 4132.75C4507.95 4143.15 4495.27 4154.78 4483.72 4167.48C4475.89 4176.1 4468.75 4185.31 4462.36 4195.04C4459.75 4198.42 4457.62 4202.12 4456.02 4206.07C4457.12 4206.9 4467.32 4192.29 4487.44 4171.34C4499.33 4159.43 4512.09 4148.42 4525.61 4138.4C4542.27 4126.28 4559.98 4115.67 4578.53 4106.71C4597.19 4098 4616.55 4090.9 4636.41 4085.48C4652.7 4081.29 4669.29 4078.34 4686.03 4076.66C4714.69 4072.94 4732.74 4074.46 4732.74 4073.08Z" fill="#263238"/>
<path d="M4395.66 4031.6C4401.43 4031.83 4407.2 4031.42 4412.88 4030.36C4423.91 4028.98 4439.76 4027.33 4459.6 4025.81C4562.67 4018.12 4666.24 4030.53 4764.58 4062.33C4783.46 4068.39 4798.62 4073.77 4808.96 4077.77C4814.23 4080.1 4819.72 4081.9 4825.36 4083.14C4820.61 4079.85 4815.47 4077.16 4810.06 4075.15C4800 4070.32 4784.98 4064.26 4766.23 4057.51C4667.82 4022.66 4562.9 4010.14 4459.05 4020.85C4439.34 4022.92 4423.36 4025.26 4412.47 4027.6C4406.75 4028.39 4401.12 4029.73 4395.66 4031.6Z" fill="#263238"/>
<path d="M3333.26 3294.99C3334.77 3293.68 3336.07 3292.15 3337.12 3290.44L3347.31 3276.66L3384.8 3224.84C3416.91 3179.36 3461.84 3115.97 3514.62 3041.55L3508.83 3040.73C3528.95 3099.71 3551.14 3164.76 3574.43 3233.66L3575.95 3237.94L3579.8 3235.45L3587.52 3230.49C3617.55 3211.27 3644.85 3188.09 3668.69 3161.59C3690.73 3136.91 3710.17 3110.03 3726.71 3081.38C3754.25 3032.89 3775.68 2981.19 3790.52 2927.44C3800.48 2891.14 3808.53 2854.34 3814.64 2817.19C3816.84 2804.79 3818.5 2794.73 3819.87 2787.15C3820.26 2784.58 3820.86 2782.04 3821.67 2779.57C3821.67 2777.92 3822.63 2777.09 3822.49 2776.95C3822.35 2776.81 3816.84 2790.73 3811.88 2816.78C3806.92 2842.83 3799.06 2880.31 3785.56 2925.65C3770.3 2978.9 3748.59 3030.08 3720.92 3078.07C3704.43 3106.19 3685.18 3132.59 3663.46 3156.9C3640.03 3182.77 3613.24 3205.39 3583.8 3224.15L3576.22 3229.12L3581.46 3231.04C3557.89 3162.14 3535.57 3097.5 3515.17 3038.11L3513.1 3032.04L3509.38 3037.28C3457.56 3112.39 3412.91 3176.33 3381.63 3222.09C3366.61 3244.41 3354.07 3262.19 3345.66 3275.14L3336.43 3288.93C3335.16 3290.83 3334.1 3292.86 3333.26 3294.99Z" fill="#263238"/>
<g opacity="0.3">
<path d="M2901.22 3931.55C2916.08 4087.05 2882.38 4243.33 2804.75 4378.89C2727.57 4513.12 2614.29 4632.87 2473.31 4697.1C2468.76 4560.25 2475.37 4399.01 2470.83 4262.16L2901.22 3931.55Z" fill="black"/>
</g>
<path d="M2916.79 3751.43C2916.79 3751.43 2977.15 3768.1 2931.95 3891.72C2886.75 4015.34 2871.59 4007.76 2841.41 4123.24C2811.22 4238.73 2776.08 4343.74 2723.44 4409.62C2670.79 4475.49 2474.69 4608.07 2474.69 4608.07L2298.84 4442.69C2298.84 4442.69 2327.78 4318.66 2320.89 4235.15C2314 4151.63 2296.36 3945.74 2298.84 3910.05C2301.32 3874.35 2339.08 3789.46 2339.08 3789.46V3731.03L2429.48 3452.92C2429.48 3452.92 2479.78 3430.32 2497.29 3510.67L2527.47 3425.36C2527.47 3425.36 2575.15 3417.78 2587.69 3515.77C2600.23 3613.75 2577.63 3749.36 2577.63 3749.36L2602.85 3920.11L2640.47 4035.73L2673.14 4040.69C2673.14 4040.69 2722.33 4026.91 2749.21 3934.72C2776.08 3842.52 2848.98 3731.3 2916.79 3751.43Z" fill="#FFBE9D"/>
<path d="M2357.27 4188.84C2357.27 4188.84 2357.27 4186.78 2358.1 4182.64C2358.92 4178.51 2358.92 4171.75 2359.34 4164.17C2360.3 4147.36 2361.54 4124.07 2363.06 4095.27C2365.81 4035.32 2369.53 3951.81 2373.94 3854.37L2373.26 3856.44C2377.76 3851.77 2383.45 3848.43 2389.72 3846.78C2395.99 3845.12 2402.59 3845.23 2408.81 3847.07C2415.55 3848.7 2421.9 3851.67 2427.49 3855.78C2433.07 3859.9 2437.78 3865.09 2441.34 3871.05C2456.77 3895.72 2457.6 3927.96 2462.42 3958.97C2471.93 4029.39 2481.03 4096.78 2489.29 4157.56C2493.43 4188.15 2497.84 4217.09 2503.76 4243.97C2509.35 4268.89 2516.67 4293.39 2525.68 4317.28C2533.39 4339.2 2540.28 4358.63 2544.56 4376.96C2548.37 4392.05 2550.27 4407.56 2550.21 4423.12C2549.72 4436.52 2547.4 4449.78 2543.32 4462.54C2544.97 4459.45 2546.35 4456.22 2547.45 4452.89C2550.72 4443.34 2552.58 4433.35 2552.96 4423.26C2553.62 4407.28 2552.09 4391.28 2548.42 4375.72C2543.58 4355.26 2537.56 4335.1 2530.36 4315.35C2521.84 4291.55 2514.94 4267.19 2509.69 4242.45C2504.04 4215.85 2499.77 4187.33 2495.91 4156.46C2487.92 4095.27 2478.96 4028.29 2469.59 3957.73C2467.38 3942.16 2465.73 3926.59 2462.97 3911.15C2460.71 3895.55 2455.47 3880.53 2447.54 3866.91C2443.44 3860.22 2438.05 3854.42 2431.68 3849.83C2425.32 3845.24 2418.11 3841.96 2410.47 3840.18C2403.04 3837.94 2395.13 3837.84 2387.65 3839.89C2380.17 3841.94 2373.41 3846.05 2368.16 3851.75L2367.47 3852.72V3853.82C2364.02 3951.25 2361.13 4034.77 2359.06 4094.85C2359.06 4123.93 2357.82 4147.22 2357.27 4163.76C2357.27 4171.34 2357.27 4177.54 2357.27 4182.23C2357.03 4184.43 2357.03 4186.64 2357.27 4188.84Z" fill="#EB996E"/>
<path d="M2453.74 3871.87C2456.87 3866.97 2459.37 3861.69 2461.18 3856.16C2466.94 3841.48 2471.86 3826.48 2475.92 3811.24C2481.84 3788.62 2486.03 3765.58 2488.47 3742.33C2490.17 3728.61 2490.44 3714.76 2489.29 3700.99C2488.01 3685.59 2482.79 3670.78 2474.13 3657.99C2466.4 3646.52 2455.05 3637.98 2441.89 3633.73L2439.27 3633.04L2437.89 3635.39C2412.39 3680.31 2390.21 3720 2374.77 3748.53L2356.72 3782.3C2354.25 3786.25 2352.3 3790.52 2350.93 3794.97C2354.01 3791.47 2356.69 3787.63 2358.92 3783.54L2378.77 3750.87C2395.3 3723.31 2418.32 3683.76 2443.95 3638.97L2439.96 3640.62C2451.49 3644.48 2461.42 3652.04 2468.21 3662.12C2476.14 3673.95 2480.89 3687.62 2481.99 3701.81C2483.37 3715.28 2483.37 3728.86 2481.99 3742.33C2479.91 3765.52 2476.28 3788.54 2471.1 3811.24C2466.69 3830.53 2461.87 3845.97 2458.7 3856.58C2456.54 3861.5 2454.88 3866.62 2453.74 3871.87Z" fill="#EB996E"/>
<path d="M2495.91 3894.47C2497.14 3889.19 2497.69 3883.77 2497.56 3878.35C2497.56 3866.5 2498.67 3851.89 2499.35 3834.66C2500.46 3797.73 2501.7 3746.74 2502.39 3690.37C2504.44 3642.18 2503.71 3593.91 2500.18 3545.81C2498.46 3531.21 2495.32 3516.81 2490.81 3502.81C2489.47 3497.53 2487.29 3492.5 2484.33 3487.93C2489.39 3507.11 2493.03 3526.64 2495.22 3546.36C2498.67 3582.88 2495.22 3633.87 2495.22 3690.24C2495.22 3746.6 2494.12 3797.59 2494.26 3834.53C2494.26 3851.89 2494.26 3866.5 2494.26 3878.35C2494.21 3883.77 2494.77 3889.18 2495.91 3894.47Z" fill="#EB996E"/>
<path d="M2644.61 4357.66C2645.57 4356.84 2634.55 4343.88 2621.04 4320.32C2613.12 4306.57 2606.26 4292.24 2600.51 4277.46C2593.75 4259.27 2588.49 4240.55 2584.8 4221.5C2581.58 4202.38 2579.96 4183.02 2579.97 4163.62C2580.18 4147.79 2581.57 4131.99 2584.11 4116.35C2588.66 4089.48 2594.45 4073.49 2593.2 4073.08C2591.03 4076.45 2589.36 4080.12 2588.24 4083.97C2584.35 4094.17 2581.31 4104.68 2579.15 4115.39C2575.77 4131.21 2573.84 4147.31 2573.36 4163.49C2572.15 4203.35 2579.33 4243.03 2594.45 4279.94C2600.54 4294.91 2607.96 4309.3 2616.63 4322.93C2622.38 4332.18 2628.88 4340.94 2636.06 4349.12C2641.16 4354.91 2644.2 4357.94 2644.61 4357.66Z" fill="#EB996E"/>
<path d="M2335.91 4271.53L2183.35 4324.45C2183.35 4324.45 2037.54 4249.07 1937.08 4324.45C1836.61 4399.83 1749.38 4598.42 1776.94 4678.77C1776.94 4678.77 1845.85 4764.49 1899.04 4777.03C1952.24 4789.57 2156.89 4739.82 2242.2 4721.9C2327.5 4703.99 2474.69 4608.34 2474.69 4608.34L2335.91 4271.53Z" fill="#FFBE9D"/>
<path d="M2317.17 4496.03C2318.24 4491.51 2318.79 4486.89 2318.82 4482.25C2318.82 4471.91 2320.06 4459.64 2320.89 4445.31C2322.54 4414.17 2324.61 4371.17 2325.3 4323.49C2325.99 4275.8 2324.61 4232.67 2321.85 4201.52C2320.47 4185.95 2318.68 4173.96 2317.17 4164.73C2316.83 4160 2315.76 4155.35 2314 4150.94C2312.89 4150.94 2315.24 4170.24 2316.75 4201.38C2318.27 4232.53 2318.82 4275.39 2318.13 4322.93C2317.44 4370.48 2316.48 4411.55 2315.93 4444.62C2315.93 4460.2 2315.93 4472.87 2315.93 4481.56C2315.56 4486.42 2315.98 4491.3 2317.17 4496.03Z" fill="#EB996E"/>
<path d="M1814.01 4318.11C1829.82 4301.69 1846.77 4286.4 1864.73 4272.36C1908.85 4239.34 1961.76 4220.12 2016.79 4217.1C2071.82 4214.08 2126.51 4227.41 2173.98 4255.41C2193.24 4267.41 2211.66 4280.72 2229.1 4295.23C2225.46 4290.18 2221.26 4285.55 2216.56 4281.45C2204.16 4269.93 2190.63 4259.68 2176.18 4250.86C2128.25 4221 2072.28 4206.66 2015.9 4209.8C1959.51 4212.93 1905.47 4233.38 1861.14 4268.36C1847.74 4278.67 1835.45 4290.36 1824.49 4303.23C1820.42 4307.76 1816.91 4312.76 1814.01 4318.11Z" fill="#263238"/>
<path d="M1833.58 4190.91C1853.29 4176.75 1874.62 4165 1897.11 4155.9C1952.41 4136.28 2012.47 4134.49 2068.83 4150.81C2099.83 4159.51 2129.68 4171.91 2157.72 4187.74C2180.54 4200.86 2202.09 4216.08 2222.07 4233.22C2239.16 4247.83 2252.26 4260.78 2261.21 4269.46C2265.61 4274.48 2270.45 4279.1 2275.68 4283.24C2272.1 4277.68 2267.94 4272.51 2263.28 4267.81C2251.38 4254.38 2238.72 4241.64 2225.38 4229.63C2205.58 4211.75 2184.01 4195.91 2161.02 4182.36C2132.7 4165.81 2102.36 4152.98 2070.76 4144.19C2013.01 4127.32 1951.33 4129.89 1895.18 4151.49C1878.41 4158.19 1862.61 4167.09 1848.19 4177.95C1843.09 4181.68 1839.64 4185.26 1837.03 4187.46C1834.41 4189.67 1833.58 4190.77 1833.58 4190.91Z" fill="#263238"/>
<path d="M1832.34 4080.66C1832.34 4082.04 1859.9 4073.91 1903.73 4067.98C1929.63 4064.51 1955.74 4062.85 1981.87 4063.02C2013.88 4063.37 2045.81 4066.23 2077.37 4071.56C2108.87 4077.35 2139.88 4085.55 2170.12 4096.09C2194.77 4104.85 2218.76 4115.35 2241.92 4127.52C2281.47 4148.19 2303.8 4165 2304.62 4163.76C2299.94 4159.22 2294.82 4155.15 2289.33 4151.63C2283.32 4146.91 2277.02 4142.58 2270.45 4138.68C2262.87 4133.85 2254.32 4128.2 2244.4 4122.97C2221.24 4110.15 2197.14 4099.1 2172.32 4089.89C2141.87 4078.78 2110.52 4070.3 2078.61 4064.54C2046.74 4059.14 2014.47 4056.42 1982.14 4056.4C1955.69 4056.54 1929.29 4058.7 1903.18 4062.88C1892.01 4064.26 1882.09 4066.88 1873.41 4068.67C1865.87 4070.2 1858.42 4072.13 1851.08 4074.46C1844.67 4075.98 1838.4 4078.05 1832.34 4080.66Z" fill="#263238"/>
<path d="M3001.4 2731.2C2995.69 2744.03 2992.15 2757.72 2990.93 2771.72C2986.82 2811.24 2988.77 2851.16 2996.72 2890.1C3001.55 2918.04 3008.14 2945.66 3016.43 2972.78C3027.29 3004.35 3040.66 3034.99 3056.39 3064.43C3089.33 3127.82 3130.67 3196.87 3178.63 3271.15L3184.14 3279.83V3269.49C3184.14 3220.71 3184.14 3169.58 3184.14 3116.52L3178.77 3119.14L3308.18 3222.36L3307.07 3220.71C3337.77 3321.3 3356.64 3425.13 3363.3 3530.1C3375.98 3697.82 3365.78 3858.23 3357.93 4003.76C3350.07 4149.29 3346.63 4280.63 3342.08 4390.88C3337.53 4501.13 3333.81 4590.15 3330.5 4651.75C3328.57 4682.35 3327.19 4706.05 3326.23 4722.59C3326.23 4730.45 3325.26 4736.37 3324.99 4741.06C3324.71 4745.74 3324.99 4747.4 3324.99 4747.4C3324.99 4747.4 3324.99 4745.33 3325.95 4741.19C3326.92 4737.06 3327.06 4730.58 3327.88 4722.73C3329.4 4706.6 3331.33 4682.76 3333.4 4651.89C3337.53 4590.43 3342.35 4501.26 3347.18 4391.01C3352 4280.76 3357.93 4149.7 3364.54 4004.04C3371.16 3858.37 3383.15 3697.82 3370.47 3529.55C3363.5 3423.96 3344.12 3319.56 3312.72 3218.5V3217.54H3311.9L3182.9 3114.04L3177.53 3109.63V3116.52C3177.53 3169.58 3177.53 3220.71 3177.53 3269.49L3183.18 3267.7C3088.5 3120.93 3011.47 2993.32 2999.61 2890.1C2991.43 2851.53 2988.92 2811.97 2992.17 2772.68C2993.3 2762.36 2995.19 2752.13 2997.82 2742.09C3000.58 2734.64 3001.4 2731.2 3001.4 2731.2Z" fill="#263238"/>
<path d="M3248.64 4508.84H3253.05C3263.09 4509.49 3272.48 4514.01 3279.24 4521.45C3286 4528.9 3289.6 4538.68 3289.28 4548.73C3288.95 4558.78 3284.73 4568.31 3277.51 4575.31C3270.29 4582.3 3260.63 4586.21 3250.57 4586.21C3240.51 4586.21 3230.85 4582.3 3223.63 4575.31C3216.41 4568.31 3212.19 4558.78 3211.86 4548.73C3211.54 4538.68 3215.14 4528.9 3221.9 4521.45C3228.66 4514.01 3238.05 4509.49 3248.09 4508.84H3248.64Z" fill="#1C1C1C"/>
<path d="M3248.64 3977.71H3253.05C3263.05 3978.36 3272.41 3982.87 3279.14 3990.28C3285.88 3997.7 3289.46 4007.45 3289.14 4017.46C3288.82 4027.48 3284.61 4036.97 3277.41 4043.94C3270.22 4050.91 3260.59 4054.81 3250.57 4054.81C3240.55 4054.81 3230.92 4050.91 3223.73 4043.94C3216.53 4036.97 3212.33 4027.48 3212 4017.46C3211.68 4007.45 3215.27 3997.7 3222 3990.28C3228.74 3982.87 3238.09 3978.36 3248.09 3977.71H3248.64Z" fill="#1C1C1C"/>
<path d="M3253.05 3502.54C3242.76 3503.21 3232.63 3499.77 3224.87 3492.98C3217.12 3486.18 3212.38 3476.58 3211.71 3466.29C3211.03 3456 3214.47 3445.87 3221.27 3438.11C3228.06 3430.36 3237.66 3425.62 3247.95 3424.95H3253.05C3263.36 3424.95 3273.24 3429.04 3280.53 3436.33C3287.82 3443.62 3291.91 3453.5 3291.91 3463.81C3291.91 3474.12 3287.82 3484 3280.53 3491.29C3273.24 3498.58 3263.36 3502.67 3253.05 3502.67V3502.54Z" fill="#1C1C1C"/>
<path d="M3848.81 2108.84C3897.05 2055.23 3945.28 2001.21 3980.98 1938.36C4016.67 1875.52 4037.2 1802.07 4025.63 1731.64C4018.74 1690.3 4001.1 1650.33 3998.07 1607.61C3994.21 1549.73 4018.46 1489.23 3998.07 1435.07C3966.09 1350.18 3851.85 1337.09 3782.66 1278.52C3728.78 1232.9 3702.6 1158.89 3643.34 1120.58C3591.52 1086.96 3524.95 1087.78 3464.18 1096.33C3403.4 1104.87 3341.66 1120.44 3280.48 1112.18C3236.93 1106.39 3195.86 1088.75 3153.27 1078.14C3110.69 1067.52 3062.87 1064.36 3024.97 1086.96C2987.07 1109.56 2965.57 1162.89 2990.52 1199.14C2919.68 1166.47 2829.69 1221.74 2810.26 1297.26C2790.83 1372.78 2829.69 1454.5 2889.78 1503.98C2949.86 1553.45 3027.59 1577.02 3104.08 1591.49C3320.99 1632.83 3556.51 1609.27 3743.53 1491.85" fill="#191D1F"/>
<path d="M3085.75 2838.28C3096.36 2755.59 3105.04 2687.65 3105.59 2679.1C3105.59 2679.1 2831.07 2617.36 2846.23 2339.81C2853.53 2205.58 2891.02 1930.51 2927.95 1682.03C2946.93 1553.22 3013.76 1436.3 3115.11 1354.56C3216.46 1272.83 3344.88 1232.29 3474.79 1241.03L3502.35 1242.68C3789.69 1278.93 3919.65 1543.25 3875.55 1829.63L3720.37 2789.77C3720.37 2789.77 3654.22 3002.14 3512.69 3038.93L3333.53 3294.16L3304.04 3183.91L3170.91 3067.87C3145.4 3037.88 3123.35 3005.1 3105.18 2970.17C3084.85 2929.38 3078.05 2883.19 3085.75 2838.28Z" fill="#FFBE9D"/>
<path d="M3105.45 2675.25C3105.45 2675.25 3279.79 2701.16 3473.96 2596.56C3473.96 2596.56 3375.02 2790.46 3099.94 2747.05L3105.45 2675.25Z" fill="#EB996E"/>
<path d="M3017.12 1920.72C3016.34 1931.05 3019.62 1941.27 3026.26 1949.22C3032.9 1957.17 3042.37 1962.22 3052.67 1963.31C3057.69 1964.04 3062.8 1963.76 3067.7 1962.49C3072.61 1961.21 3077.21 1958.97 3081.23 1955.88C3085.25 1952.8 3088.61 1948.94 3091.12 1944.53C3093.62 1940.13 3095.22 1935.26 3095.81 1930.23C3096.73 1919.82 3093.49 1909.47 3086.8 1901.44C3080.11 1893.41 3070.52 1888.35 3060.11 1887.37C3055.09 1886.66 3049.97 1886.96 3045.07 1888.26C3040.16 1889.56 3035.57 1891.84 3031.56 1894.95C3027.55 1898.06 3024.2 1901.94 3021.72 1906.37C3019.24 1910.8 3017.68 1915.68 3017.12 1920.72Z" fill="#263238"/>
<path d="M2978.39 1822.32C2982.94 1827.84 3014.5 1807.58 3057.08 1810.61C3099.67 1813.64 3129.02 1836.93 3134.53 1832.25C3136.88 1830.18 3132.47 1820.53 3119.51 1809.65C3101.96 1795.61 3080.48 1787.38 3058.05 1786.08C3035.85 1784.47 3013.73 1790.02 2994.93 1801.93C2981.15 1810.75 2976.19 1819.84 2978.39 1822.32Z" fill="#263238"/>
<path d="M3419.8 1949.53C3419 1959.85 3422.27 1970.07 3428.92 1978.01C3435.56 1985.94 3445.06 1990.96 3455.36 1991.97C3460.37 1992.73 3465.47 1992.47 3470.38 1991.21C3475.28 1989.95 3479.88 1987.72 3483.91 1984.65C3487.93 1981.57 3491.3 1977.72 3493.8 1973.32C3496.31 1968.92 3497.9 1964.06 3498.5 1959.03C3499.27 1948.73 3496.01 1938.52 3489.4 1930.58C3482.79 1922.63 3473.35 1917.57 3463.08 1916.45C3458.05 1915.71 3452.94 1915.99 3448.02 1917.27C3443.11 1918.54 3438.5 1920.78 3434.47 1923.87C3430.44 1926.95 3427.06 1930.81 3424.54 1935.21C3422.02 1939.62 3420.41 1944.49 3419.8 1949.53Z" fill="#263238"/>
<path d="M3396.79 1858.29C3401.48 1863.81 3432.9 1843.55 3475.48 1846.58C3518.06 1849.61 3547.97 1872.9 3552.93 1867.94C3555.41 1865.87 3551 1856.23 3538.05 1845.34C3520.43 1831.33 3498.92 1823.1 3476.45 1821.77C3454.3 1820.18 3432.22 1825.74 3413.47 1837.62C3399.68 1846.72 3394.58 1855.81 3396.79 1858.29Z" fill="#263238"/>
<path d="M3221.08 2164.1C3221.08 2161.62 3195.17 2155.28 3152.17 2146.87C3141.42 2145.08 3131.22 2142.19 3129.85 2134.75C3129.71 2123.41 3133.03 2112.31 3139.36 2102.91L3177.12 2022.15C3229.62 1907.22 3268.49 1812.26 3263.8 1810.2C3259.12 1808.13 3212.81 1899.64 3160.17 2014.71L3123.78 2096.02C3116.07 2108.69 3113.05 2123.66 3115.24 2138.33C3116.57 2142.26 3118.78 2145.84 3121.69 2148.8C3124.6 2151.76 3128.14 2154.02 3132.05 2155.42C3137.97 2157.47 3144.13 2158.77 3150.38 2159.28C3193.93 2164.51 3220.67 2166.44 3221.08 2164.1Z" fill="#263238"/>
<path d="M3397.07 1690.44C3400.51 1702.43 3443.37 1699.67 3493.53 1709.04C3543.7 1718.41 3582.7 1734.81 3590 1724.89C3593.31 1720.07 3586.97 1708.77 3571.4 1696.36C3550.54 1681.23 3526.52 1671.01 3501.15 1666.47C3475.78 1661.94 3449.71 1663.21 3424.9 1670.18C3405.47 1676.38 3395.55 1684.93 3397.07 1690.44Z" fill="#263238"/>
<path d="M3002.37 1699.95C3009.12 1710.14 3039.17 1702.15 3074.58 1703.94C3110 1705.73 3139.36 1714.83 3146.94 1705.18C3150.24 1700.5 3146.11 1690.44 3133.15 1680.38C3116.32 1668.27 3096.28 1661.41 3075.55 1660.68C3054.83 1659.94 3034.35 1665.36 3016.7 1676.24C3004.02 1685.34 2999.34 1694.43 3002.37 1699.95Z" fill="#263238"/>
<path d="M3838.48 2034.28C3843.3 2032.63 4032.79 1990.73 4014.05 2179.95C3995.31 2369.16 3790.52 2307.42 3790.52 2302.05C3790.52 2296.68 3838.48 2034.28 3838.48 2034.28Z" fill="#FFBE9D"/>
<path d="M3874.31 2239.9C3875.27 2239.9 3877.34 2242.52 3882.72 2245.55C3890.19 2249.72 3898.99 2250.81 3907.25 2248.58C3928.06 2243.2 3948.59 2213.16 3952.31 2179.67C3954.37 2163.5 3952.82 2147.07 3947.76 2131.58C3946.53 2125.53 3943.86 2119.86 3939.97 2115.07C3936.08 2110.27 3931.1 2106.48 3925.44 2104.01C3921.74 2102.65 3917.67 2102.61 3913.95 2103.92C3910.23 2105.23 3907.08 2107.8 3905.04 2111.18C3902.01 2116.28 3902.84 2120.14 3901.87 2120.28C3900.91 2120.41 3898.15 2116.83 3900.36 2109.11C3901.91 2104.52 3904.97 2100.59 3909.04 2097.95C3911.84 2096.07 3914.99 2094.76 3918.3 2094.1C3921.61 2093.43 3925.02 2093.43 3928.33 2094.09C3935.93 2096.42 3942.81 2100.66 3948.31 2106.4C3953.81 2112.14 3957.75 2119.2 3959.75 2126.89C3966.21 2144.07 3968.34 2162.58 3965.96 2180.78C3960.99 2218.81 3938.39 2252.58 3909.87 2257.67C3904.62 2258.67 3899.22 2258.47 3894.07 2257.09C3888.91 2255.7 3884.14 2253.17 3880.1 2249.68C3874.17 2244.44 3873.21 2240.17 3874.31 2239.9Z" fill="#EB996E"/>
<path d="M2941.87 1423.63C2954.82 1499.02 3107.24 1568.06 3234.31 1564.34C3351.04 1560.89 3408.78 1503.01 3493.53 1461.81C3547.28 1435.76 3547.28 1435.76 3620.18 1448.03C3679.03 1457.53 3709.62 1527.13 3742.7 1576.74C3679.72 1714.56 3705.21 1873.87 3731.95 2022.7C3733.1 2039.49 3739.85 2055.4 3751.11 2067.91C3772.33 2086.65 3806.23 2075.49 3827.73 2056.33C3861.22 2025.6 3876.51 1980.12 3887.4 1936.02C3914.11 1835.72 3920.48 1731.09 3906.14 1628.28C3891.66 1524.98 3847.19 1428.19 3778.25 1349.9C3688.1 1254.9 3564.57 1198.62 3433.72 1192.93C3303.53 1188.27 3175.17 1224.72 3066.87 1297.12C3016.7 1330.06 2970.4 1370.71 2941.46 1423.49" fill="#191D1F"/>
<path d="M3193.1 2259.47L3289.57 2214.54C3294.86 2211.41 3300.94 2209.88 3307.07 2210.13C3313.86 2211.66 3319.81 2215.69 3323.75 2221.43C3335.06 2234.96 3342.11 2251.54 3344.02 2269.07C3345.93 2286.6 3342.62 2304.31 3334.5 2319.97C3325.67 2335.21 3311.78 2346.9 3295.25 2352.99C3278.71 2359.08 3260.57 2359.19 3243.95 2353.32C3209.78 2339.53 3193.24 2299.43 3190.48 2262.5L3193.1 2259.47Z" fill="#EB996E"/>
<path d="M3240.92 2360.48C3240.92 2361.31 3245.47 2364.07 3254.7 2366.13C3268.52 2368.61 3282.74 2367.57 3296.05 2363.1C3316.4 2356.25 3333.45 2342.05 3343.87 2323.27C3350.46 2311.84 3354.41 2299.07 3355.44 2285.91C3356.46 2272.75 3354.54 2259.52 3349.79 2247.2C3344.95 2234.43 3337.32 2222.9 3327.47 2213.44C3322.69 2208.92 3317.42 2204.94 3311.76 2201.59C3308.37 2199.56 3304.54 2198.38 3300.6 2198.14C3296.77 2197.99 3292.95 2198.69 3289.43 2200.21C3284.29 2202.8 3279.27 2205.65 3274.41 2208.75L3261.32 2216.88L3237.75 2231.49C3209.23 2249.68 3192 2261.81 3192.96 2263.46C3193.93 2265.12 3212.95 2256.3 3242.85 2240.31L3267.25 2226.53L3281.03 2218.95C3285.71 2216.61 3290.67 2213.44 3294.81 2211.78C3296.51 2210.97 3298.4 2210.64 3300.27 2210.84C3302.14 2211.03 3303.92 2211.74 3305.42 2212.89C3310 2215.77 3314.25 2219.15 3318.1 2222.95C3326.28 2231.09 3332.66 2240.85 3336.84 2251.61C3340.84 2262.05 3342.54 2273.23 3341.83 2284.38C3341.11 2295.53 3338 2306.4 3332.71 2316.25C3324.12 2332.74 3310.03 2345.71 3292.88 2352.9C3281.01 2357.68 3268.32 2360.07 3255.53 2359.93C3246.44 2360.35 3241.34 2359.52 3240.92 2360.48Z" fill="#263238"/>
<path d="M3271.38 1925.55C3272.75 1909.4 3275.28 1893.37 3278.96 1877.59C3285.78 1851.2 3298.05 1826.53 3314.98 1805.17C3331.9 1783.8 3353.11 1766.21 3377.24 1753.53C3401.37 1740.85 3427.88 1733.36 3455.08 1731.54C3482.27 1729.71 3509.55 1733.6 3535.15 1742.94C3552.8 1749.28 3569.39 1758.24 3584.35 1769.54C3600.3 1780.97 3614.27 1794.93 3625.7 1810.89C3650.26 1844.09 3663.51 1884.31 3663.51 1925.61C3663.51 1966.92 3650.26 2007.13 3625.7 2040.34C3614.27 2056.3 3600.3 2070.26 3584.35 2081.69C3569.39 2092.99 3552.8 2101.95 3535.15 2108.29C3509.54 2117.54 3482.28 2121.36 3455.12 2119.5C3427.95 2117.63 3401.47 2110.13 3377.36 2097.46C3353.26 2084.79 3332.06 2067.24 3315.12 2045.92C3298.17 2024.6 3285.86 1999.98 3278.96 1973.64C3275.3 1957.9 3272.77 1941.92 3271.38 1925.82C3271.22 1926.87 3271.22 1927.94 3271.38 1928.99C3271.38 1931.47 3271.38 1934.64 3271.38 1938.36C3271.26 1943.48 3271.63 1948.61 3272.48 1953.66C3273.25 1960.63 3274.49 1967.53 3276.2 1974.33C3280.57 1993.09 3287.77 2011.08 3297.56 2027.66C3321.1 2067.9 3357.99 2098.61 3401.83 2114.47C3445.66 2130.33 3493.66 2130.34 3537.5 2114.49C3555.76 2107.96 3572.91 2098.66 3588.35 2086.92C3604.8 2075.14 3619.23 2060.75 3631.07 2044.34C3656.53 2009.94 3670.27 1968.27 3670.27 1925.48C3670.27 1882.68 3656.53 1841.02 3631.07 1806.61C3619.31 1790.17 3604.93 1775.78 3588.49 1764.03C3573.05 1752.29 3555.89 1743 3537.63 1736.47C3503.86 1724.34 3467.46 1721.48 3432.21 1728.2C3404.3 1733.54 3377.86 1744.78 3354.66 1761.18C3331.46 1777.59 3312.04 1798.76 3297.7 1823.29C3287.91 1839.88 3280.7 1857.86 3276.34 1876.62C3274.63 1883.42 3273.39 1890.33 3272.62 1897.29C3271.76 1902.35 3271.39 1907.47 3271.52 1912.59C3271.52 1916.31 3271.52 1919.48 3271.52 1921.96C3271.29 1923.14 3271.24 1924.35 3271.38 1925.55Z" fill="#263238"/>
<path d="M2799.51 1906.94C2800.86 1891.22 2803.3 1875.61 2806.81 1860.22C2817.86 1818.54 2842.62 1781.79 2877.1 1755.9C2900.59 1738.03 2927.98 1725.99 2957.03 1720.76C2990.35 1714.64 3024.71 1717.54 3056.53 1729.16C3073.65 1735.36 3089.76 1744.04 3104.35 1754.93C3119.7 1766.17 3133.19 1779.75 3144.32 1795.18C3168.14 1827.57 3180.99 1866.73 3180.99 1906.94C3180.99 1947.15 3168.14 1986.31 3144.32 2018.71C3133.22 2034.12 3119.73 2047.66 3104.35 2058.81C3089.8 2069.8 3073.68 2078.53 3056.53 2084.72C3024.69 2096.28 2990.36 2099.18 2957.03 2093.13C2927.98 2087.89 2900.59 2075.85 2877.1 2057.98C2842.62 2032.09 2817.86 1995.34 2806.81 1953.66C2803.3 1938.27 2800.86 1922.66 2799.51 1906.94C2799.18 1911.02 2799.18 1915.12 2799.51 1919.21C2799.46 1924.24 2799.83 1929.26 2800.61 1934.23C2801.35 1941.01 2802.54 1947.73 2804.2 1954.35C2812.98 1990.44 2831.93 2023.26 2858.8 2048.91C2885.67 2074.56 2919.33 2091.96 2955.79 2099.05C2990.17 2105.54 3025.66 2102.74 3058.6 2090.92C3095.02 2077.65 3126.74 2053.98 3149.83 2022.84C3174.63 1989.29 3188.01 1948.66 3188.01 1906.94C3188.01 1865.22 3174.63 1824.59 3149.83 1791.04C3126.74 1759.9 3095.02 1736.23 3058.6 1722.96C3025.66 1711.15 2990.17 1708.34 2955.79 1714.83C2919.33 1721.92 2885.67 1739.33 2858.8 1764.98C2831.93 1790.62 2812.98 1823.44 2804.2 1859.53C2802.54 1866.15 2801.35 1872.87 2800.61 1879.65C2799.83 1884.62 2799.46 1889.65 2799.51 1894.68C2799.18 1898.76 2799.18 1902.86 2799.51 1906.94Z" fill="#263238"/>
<path d="M3184.14 1863.39C3184.97 1864.08 3189.52 1860.36 3197.93 1856.36C3208.77 1851.2 3220.65 1848.61 3232.65 1848.78C3244.63 1848.96 3256.39 1851.98 3266.97 1857.6C3275.24 1861.88 3279.65 1865.87 3280.75 1865.05C3281.85 1864.22 3278.27 1858.98 3270 1853.19C3259.11 1845.78 3246.29 1841.71 3233.12 1841.49C3219.94 1841.27 3206.99 1844.91 3195.86 1851.95C3187.45 1857.47 3184.14 1862.84 3184.14 1863.39Z" fill="#263238"/>
<path d="M3654.78 1897.43C3682.05 1922.2 3710.86 1945.22 3741.05 1966.34C3769.92 1989.3 3800.21 2010.43 3831.73 2029.6C3804.49 2004.73 3775.62 1981.71 3745.32 1960.69C3716.53 1937.68 3686.29 1916.55 3654.78 1897.43Z" fill="#565656"/>
<g opacity="0.3">
<path d="M3818.08 2794.32C3837.24 2981.33 3766.13 3178.81 3616.05 3292.1C3604.33 3301.05 3589.59 3309.87 3575.67 3304.77C3566.39 3300.28 3558.98 3292.67 3554.72 3283.28C3512.69 3210.66 3496.93 3125.8 3510.07 3042.93C3533.77 3105.5 3554.17 3166.96 3578.15 3232.28C3708.66 3152.9 3790.52 2984.22 3818.08 2794.32Z" fill="black"/>
</g>
<path opacity="0.3" d="M3309.97 3219.61L3199.72 3179.37L3181.53 3365.55C3181.53 3365.55 3062.73 3149.05 3013.53 3050.37C2964.33 2951.7 2989.69 2777.23 2989.69 2777.23C2989.69 2777.23 2972.19 2928.82 3091.12 3122.72L3180.97 3268.81V3115.83L3309.97 3219.61Z" fill="black"/>
<g opacity="0.3">
<path d="M4589.83 4165.83C4640.09 4144.48 4695.31 4137.56 4749.28 4145.85C4806.8 4150.55 4861.82 4171.38 4908.04 4205.93C4952.69 4241.9 4982.88 4298.68 4976.95 4355.73L4971.44 4356.42C4932.99 4252.51 4856.64 4177.27 4758.1 4167.76C4659.57 4158.25 4563.51 4202.35 4496.26 4274.7C4503.56 4220.68 4541.32 4188.84 4589.83 4165.83Z" fill="black"/>
</g>
<g opacity="0.3">
<path d="M1806.84 4271.53C1845.04 4232.33 1894.97 4206.64 1949.07 4198.35C1996.19 4190.47 2044.48 4193.27 2090.38 4206.56C2136.27 4219.84 2178.6 4243.27 2214.22 4275.11L2193.27 4258.02C2139.98 4225.93 2078.8 4209.33 2016.6 4210.07C1954.17 4211.13 1894.3 4235.06 1848.33 4277.32C1806.98 4316.46 1782.31 4369.51 1758.75 4421.19C1754.93 4394.23 1757.28 4366.76 1765.61 4340.84C1773.94 4314.92 1788.04 4291.22 1806.84 4271.53Z" fill="black"/>
</g>
<path d="M2516.44 3407.44C2515.32 3402.28 2513.66 3397.24 2511.48 3392.42C2507.21 3381.54 2501.97 3368.17 2495.91 3352.32C2482.13 3318.56 2464.21 3271.98 2444.92 3220.02C2425.62 3168.06 2408.95 3120.79 2396.96 3086.62L2383.18 3045.96C2381.7 3040.89 2379.67 3035.99 2377.11 3031.35C2377.54 3036.63 2378.7 3041.83 2380.56 3046.79C2383.18 3056.71 2387.31 3070.77 2392.69 3088.13C2403.44 3122.86 2419.42 3170.82 2438.72 3222.5C2458.01 3274.18 2477.17 3321.04 2491.77 3354.25C2498.94 3370.92 2505.55 3384.29 2509.55 3393.53C2511.27 3398.43 2513.58 3403.11 2516.44 3407.44Z" fill="#263238"/>
<path d="M4253.85 3420.95C4255.77 3420.95 4270.8 3355.76 4287.33 3274.46C4303.87 3193.15 4315.72 3127.69 4314.21 3126.58C4312.69 3125.48 4297.39 3191.77 4280.86 3273.08C4264.32 3354.39 4251.92 3420.54 4253.85 3420.95Z" fill="#263238"/>
<path d="M4279.89 4240.8C4275.48 4243 4330.33 3811.37 4330.33 3811.37C4330.33 3811.37 4295.74 3483.79 4276.31 3468.63V3353.01C4276.31 3353.01 4222.7 3320.62 4208.37 3372.99C4208.37 3372.99 4160.82 3331.65 4153.24 3429.91C4145.66 3528.17 4143.18 3628.5 4143.18 3628.5L4037.48 3892.82L4020.12 3901.64C4020.12 3901.64 3997.38 3694.92 3984.15 3664.05C3970.92 3633.18 3961.82 3559.45 3911.79 3570.62C3861.77 3581.78 3857.5 3623.12 3866.45 3690.65C3875.41 3758.18 3886.71 3828.46 3882.44 3871.74C3878.17 3915.01 3858.46 4011.34 3864.53 4087.69C3870.59 4164.04 3912.48 4244.52 3956.31 4301.02C4000.13 4357.53 4084.06 4474.53 4129.54 4509.67C4144.28 4522.07 4279.89 4240.8 4279.89 4240.8Z" fill="#FFBE9D"/>
<path d="M4226.42 3889.51C4227.11 3883.38 4227.11 3877.18 4226.42 3871.05C4225.6 3857.27 4224.35 3841 4222.98 3820.88C4219.81 3778.57 4214.85 3720.14 4209.2 3655.51C4206.16 3623.4 4203.27 3592.8 4200.65 3564.69C4199.08 3551.74 4199.08 3538.64 4200.65 3525.69C4202.12 3514.6 4206.92 3504.22 4214.43 3495.92C4219.94 3489.98 4226.61 3485.24 4234.03 3481.99C4241.46 3478.74 4249.47 3477.06 4257.57 3477.04C4263.63 3477.33 4269.67 3478.06 4275.62 3479.25C4274.27 3478.3 4272.78 3477.55 4271.21 3477.04C4266.79 3475.38 4262.14 3474.41 4257.43 3474.15C4248.74 3473.65 4240.05 3475.03 4231.94 3478.19C4223.83 3481.36 4216.49 3486.23 4210.44 3492.48C4202.1 3501.42 4196.76 3512.74 4195.14 3524.86C4193.41 3538.27 4193.41 3551.84 4195.14 3565.24C4197.62 3592.8 4200.38 3624.09 4203.13 3656.2C4209.06 3720.69 4214.85 3778.99 4219.39 3821.57L4225.04 3871.6C4224.99 3877.6 4225.45 3883.59 4226.42 3889.51Z" fill="#EB996E"/>
<path d="M4169.64 3712.98C4177.34 3723.46 4183.64 3734.9 4188.39 3747.02C4196.79 3777.53 4202.65 3808.69 4205.89 3840.18C4211.68 3877.11 4217.19 3910.46 4221.6 3934.58C4223.2 3947.73 4226.06 3960.7 4230.14 3973.3C4230.09 3960.04 4228.89 3946.81 4226.56 3933.75C4223.53 3909.5 4218.7 3876.01 4212.78 3839.07C4206.85 3802.14 4202.99 3768.38 4192.8 3745.22C4189.17 3736.15 4184.1 3727.73 4177.77 3720.28C4173.23 3714.77 4169.92 3712.7 4169.64 3712.98Z" fill="#EB996E"/>
<path d="M4208.51 3367.34C4206.59 3371.72 4205.33 3376.37 4204.79 3381.12C4202.86 3389.94 4200.51 3402.76 4197.89 3418.75C4192.66 3450.58 4186.87 3494.82 4183.15 3544.02C4179.43 3593.22 4178.74 3637.87 4179.29 3670.12C4179.29 3686.24 4179.98 3699.33 4180.67 3708.29C4180.55 3712.94 4181.11 3717.58 4182.32 3722.07C4183.99 3704.76 4184.68 3687.37 4184.39 3669.98C4185.08 3637.73 4186.73 3593.35 4190.31 3544.43C4193.9 3495.51 4198.86 3451.27 4202.86 3419.3C4205.77 3402.11 4207.65 3384.76 4208.51 3367.34Z" fill="#EB996E"/>
<path d="M3903.53 3771.96C3908.75 3775.33 3914.73 3777.38 3920.93 3777.9C3927.13 3778.43 3933.36 3777.43 3939.08 3774.99C3959.34 3768.93 3968.71 3753.36 3966.65 3752.67C3957.16 3758.69 3947.15 3763.86 3936.74 3768.1C3925.79 3770.31 3914.69 3771.6 3903.53 3771.96Z" fill="#EB996E"/>
<path d="M4273.97 4187.05L4553.17 4304.47H4719.65C4719.65 4304.47 4884.2 4355.87 4909.56 4510.22C4934.92 4664.57 4938.5 4743.81 4866.15 4762.97C4793.8 4782.13 4589.42 4784.19 4488.13 4750.57C4386.83 4716.94 4121.41 4502.5 4121.41 4502.5L4095.91 4347.6L4273.97 4187.05Z" fill="#FFBE9D"/>
<path d="M2382.47 2269.73C2382.3 2270.25 2382.21 2270.73 2382.21 2271.16C2382.21 2272.56 2383.17 2273.25 2385.09 2273.25C2388.13 2273.25 2392.09 2271.64 2396.97 2268.42C2393.4 2272.43 2389.83 2275.6 2386.26 2277.95C2382.69 2280.3 2379.52 2281.48 2376.73 2281.48C2374.82 2281.48 2373.34 2280.96 2372.29 2279.91C2371.25 2278.87 2370.73 2277.43 2370.73 2275.6C2370.73 2274.56 2370.81 2273.73 2370.99 2273.12L2372.29 2268.03C2365.94 2277.34 2359.11 2282 2351.8 2282C2348.14 2282 2344.88 2280.87 2342 2278.61C2339.13 2276.26 2336.43 2272.91 2333.91 2268.55C2333.04 2264.2 2332.61 2260.24 2332.61 2256.67C2332.61 2249.1 2333.91 2242.4 2336.52 2236.57C2339.22 2230.65 2342.7 2226.08 2346.97 2222.86C2351.23 2219.64 2355.67 2218.03 2360.28 2218.03C2363.85 2218.03 2367.11 2219.03 2370.07 2221.03C2373.12 2222.95 2375.6 2225.65 2377.51 2229.13C2374.21 2227.47 2370.86 2226.65 2367.46 2226.65C2363.11 2226.65 2359.11 2228 2355.45 2230.69C2351.8 2233.39 2348.88 2237.22 2346.7 2242.18C2344.62 2247.14 2343.57 2252.89 2343.57 2259.42C2343.57 2262.64 2343.83 2266.03 2344.35 2269.6C2345.75 2270.9 2347.01 2271.86 2348.14 2272.47C2349.27 2273.08 2350.66 2273.38 2352.32 2273.38C2356.76 2273.38 2361.06 2271.29 2365.24 2267.12C2369.42 2262.94 2373.29 2257.07 2376.86 2249.49L2390.83 2193.75C2391 2193.23 2391.09 2192.75 2391.09 2192.31C2391.09 2190.92 2390.13 2190.22 2388.22 2190.22C2385.17 2190.22 2381.21 2191.83 2376.34 2195.05C2379.91 2191.05 2383.48 2187.87 2387.04 2185.52C2390.61 2183.17 2393.79 2182 2396.57 2182C2398.4 2182 2399.88 2182.52 2401.01 2183.57C2402.14 2184.61 2402.71 2186.05 2402.71 2187.87C2402.71 2188.57 2402.58 2189.4 2402.32 2190.36L2382.47 2269.73Z" fill="white"/>
<path d="M2305.25 2273.25C2308.3 2273.25 2312.26 2271.64 2317.13 2268.42C2313.57 2272.43 2310 2275.6 2306.43 2277.95C2302.86 2280.3 2299.68 2281.48 2296.9 2281.48C2294.98 2281.48 2293.5 2280.96 2292.46 2279.91C2291.42 2278.87 2290.89 2277.43 2290.89 2275.6C2290.89 2274.56 2290.98 2273.73 2291.15 2273.12L2292.46 2268.03C2286.11 2277.34 2279.27 2282 2271.96 2282C2268.31 2282 2265.04 2280.87 2262.17 2278.61C2259.3 2276.26 2256.6 2272.9 2254.08 2268.55C2253.21 2264.2 2252.77 2260.24 2252.77 2256.67C2252.77 2248.93 2254.25 2242.14 2257.21 2236.31C2260.17 2230.48 2264.35 2225.99 2269.74 2222.86C2275.14 2219.64 2281.41 2218.03 2288.54 2218.03C2294.98 2218.03 2300.68 2219.34 2305.65 2221.95C2310.61 2224.47 2314.39 2227.95 2317 2232.39C2313.52 2230.56 2309.78 2229.17 2305.78 2228.21C2301.86 2227.17 2297.9 2226.65 2293.9 2226.65C2284.41 2226.65 2277.01 2229.56 2271.7 2235.39C2266.39 2241.23 2263.74 2249.23 2263.74 2259.42C2263.74 2262.64 2264 2266.03 2264.52 2269.6C2265.92 2270.9 2267.18 2271.86 2268.31 2272.47C2269.44 2273.08 2270.83 2273.38 2272.49 2273.38C2276.92 2273.38 2281.23 2271.29 2285.41 2267.12C2289.59 2262.94 2293.46 2257.07 2297.03 2249.49L2299.51 2239.7C2300.29 2236.31 2302.47 2234.61 2306.04 2234.61C2308.91 2234.61 2310.35 2235.74 2310.35 2238.01C2310.35 2238.27 2310.26 2238.83 2310.08 2239.7L2302.64 2269.73C2302.47 2270.25 2302.38 2270.73 2302.38 2271.16C2302.38 2272.56 2303.34 2273.25 2305.25 2273.25Z" fill="white"/>
<path d="M2147.32 2281.48C2144.36 2281.48 2142.88 2280.39 2142.88 2278.21C2142.88 2277.95 2142.97 2277.39 2143.14 2276.52L2154.76 2230.3C2154.85 2230.04 2154.89 2229.69 2154.89 2229.26C2154.89 2228.48 2154.63 2227.87 2154.11 2227.43C2153.67 2227 2153.07 2226.78 2152.28 2226.78C2149.24 2226.78 2145.28 2228.39 2140.4 2231.61C2143.97 2227.6 2147.54 2224.43 2151.11 2222.08C2154.68 2219.73 2157.85 2218.55 2160.64 2218.55C2162.46 2218.55 2163.94 2219.08 2165.08 2220.12C2166.21 2221.16 2166.77 2222.6 2166.77 2224.43C2166.77 2225.12 2166.64 2225.95 2166.38 2226.91L2164.16 2235.79C2168.77 2230.39 2173.26 2226.08 2177.61 2222.86C2181.96 2219.64 2185.53 2218.03 2188.31 2218.03C2189.79 2218.03 2191.4 2218.55 2193.14 2219.6C2194.97 2220.56 2196.49 2221.86 2197.71 2223.51C2199.02 2225.17 2199.67 2226.87 2199.67 2228.61C2199.67 2229.04 2199.58 2229.61 2199.41 2230.3L2197.97 2235.79C2202.59 2230.39 2207.07 2226.08 2211.42 2222.86C2215.77 2219.64 2219.34 2218.03 2222.13 2218.03C2223.6 2218.03 2225.26 2218.55 2227.09 2219.6C2228.91 2220.56 2230.44 2221.86 2231.66 2223.51C2232.87 2225.17 2233.48 2226.87 2233.48 2228.61C2233.48 2229.04 2233.4 2229.61 2233.22 2230.3L2223.3 2269.73C2223.13 2270.08 2223.04 2270.51 2223.04 2271.03C2223.04 2272.51 2224 2273.25 2225.91 2273.25C2228.96 2273.25 2232.92 2271.64 2237.79 2268.42C2234.22 2272.43 2230.65 2275.6 2227.09 2277.95C2223.52 2280.3 2220.34 2281.48 2217.56 2281.48C2215.73 2281.48 2214.25 2280.96 2213.12 2279.91C2211.99 2278.87 2211.42 2277.43 2211.42 2275.6C2211.42 2274.82 2211.55 2273.99 2211.81 2273.12L2222.78 2229.26C2218.34 2229.87 2213.6 2231.87 2208.55 2235.26C2203.5 2238.66 2198.93 2243.01 2194.84 2248.32L2189.49 2269.73C2189.31 2270.25 2189.23 2270.73 2189.23 2271.16C2189.23 2272.56 2190.18 2273.25 2192.1 2273.25C2195.15 2273.25 2199.11 2271.64 2203.98 2268.42C2200.41 2272.43 2196.84 2275.6 2193.27 2277.95C2189.71 2280.3 2186.53 2281.48 2183.74 2281.48C2181.92 2281.48 2180.44 2280.96 2179.31 2279.91C2178.17 2278.87 2177.61 2277.43 2177.61 2275.6C2177.61 2274.82 2177.74 2273.99 2178 2273.12L2188.97 2229.26C2184.53 2229.87 2179.78 2231.87 2174.74 2235.26C2169.69 2238.66 2165.12 2243.01 2161.03 2248.32L2153.98 2276.52C2153.2 2279.82 2150.98 2281.48 2147.32 2281.48Z" fill="white"/>
<path d="M2100.64 2197.41C2093.67 2197.41 2087.49 2200.02 2082.1 2205.24C2076.7 2210.46 2072.35 2217.34 2069.04 2225.86C2073.66 2223.95 2078.4 2221.47 2083.27 2218.42C2088.15 2215.29 2092.8 2211.68 2097.24 2207.59H2101.42L2095.02 2233.44H2095.55C2097.81 2229.96 2100.55 2227.13 2103.77 2224.95C2106.99 2222.69 2110.17 2221.56 2113.3 2221.56C2116.26 2221.56 2118.57 2222.56 2120.22 2224.56C2121.87 2226.56 2122.7 2229.22 2122.7 2232.52C2122.7 2233.74 2122.66 2234.66 2122.57 2235.26C2120.39 2232.04 2117.35 2230.43 2113.43 2230.43C2109.34 2230.43 2105.55 2231.96 2102.07 2235C2098.59 2238.05 2095.07 2242.31 2091.5 2247.8L2090.85 2250.41C2089.71 2255.11 2089.15 2258.5 2089.15 2260.59C2089.15 2261.29 2089.24 2261.9 2089.41 2262.42H2075.05C2076.01 2261.2 2076.79 2259.81 2077.4 2258.24C2078.01 2256.67 2078.75 2254.06 2079.62 2250.41L2082.88 2236.96C2083.84 2232.96 2085.01 2229.3 2086.41 2226L2086.02 2225.73C2079.92 2229.74 2073.26 2232.96 2066.04 2235.39C2064.3 2242.62 2063.43 2249.76 2063.43 2256.8C2063.43 2258.11 2063.52 2259.89 2063.69 2262.16C2066.04 2265.29 2069.52 2267.81 2074.14 2269.73C2078.75 2271.64 2084.14 2272.6 2090.32 2272.6C2096.59 2272.6 2102.46 2271.51 2107.95 2269.34C2113.52 2267.16 2119.57 2263.72 2126.09 2259.02C2119.65 2266.07 2113.21 2271.69 2106.77 2275.86C2100.42 2279.96 2093.41 2282 2085.75 2282C2078.53 2282 2072 2280.13 2066.17 2276.39C2060.34 2272.64 2056.03 2267.55 2053.25 2261.11C2052.64 2257.46 2052.33 2254.24 2052.33 2251.45C2052.33 2246.75 2052.77 2242.36 2053.64 2238.27C2051.2 2238.44 2049.51 2238.53 2048.55 2238.53C2043.76 2238.53 2040.15 2237.66 2037.71 2235.92C2035.36 2234.09 2034.19 2231.57 2034.19 2228.35C2034.19 2225.73 2034.8 2223.21 2036.02 2220.77C2037.32 2218.25 2039.02 2216.25 2041.11 2214.77C2043.28 2213.2 2045.63 2212.42 2048.16 2212.42C2050.42 2212.42 2052.16 2213.03 2053.38 2214.25C2054.6 2215.46 2055.21 2217.03 2055.21 2218.95C2055.21 2219.73 2055.16 2220.34 2055.08 2220.77C2054.12 2219.03 2052.77 2218.16 2051.03 2218.16C2049.29 2218.16 2047.85 2218.86 2046.72 2220.25C2045.59 2221.56 2045.02 2222.99 2045.02 2224.56C2045.02 2226.13 2045.72 2227.34 2047.11 2228.21C2048.5 2229 2050.55 2229.39 2053.25 2229.39C2054.38 2229.39 2055.25 2229.35 2055.86 2229.26C2058.3 2221.69 2061.73 2214.77 2066.17 2208.5C2070.7 2202.24 2076.01 2197.27 2082.1 2193.62C2088.19 2189.88 2094.72 2188.01 2101.68 2188.01C2105.34 2188.01 2109.86 2188.66 2115.26 2189.96C2118.04 2190.57 2120.39 2191.05 2122.31 2191.4C2124.31 2191.66 2126.4 2191.79 2128.57 2191.79C2133.8 2191.79 2139.32 2190.7 2145.15 2188.53C2142.8 2192.71 2140.06 2195.88 2136.93 2198.06C2133.8 2200.15 2129.88 2201.19 2125.18 2201.19C2123.18 2201.19 2121 2201.02 2118.65 2200.67C2116.39 2200.23 2114.21 2199.76 2112.12 2199.23C2110.21 2198.8 2108.21 2198.41 2106.12 2198.06C2104.12 2197.62 2102.29 2197.41 2100.64 2197.41Z" fill="white"/>
<path d="M1938.93 2281.48C1935.97 2281.48 1934.49 2280.39 1934.49 2278.21C1934.49 2277.95 1934.58 2277.39 1934.75 2276.52L1946.37 2230.3C1946.46 2230.04 1946.5 2229.69 1946.5 2229.26C1946.5 2228.48 1946.24 2227.87 1945.72 2227.43C1945.28 2227 1944.67 2226.78 1943.89 2226.78C1940.84 2226.78 1936.88 2228.39 1932.01 2231.61C1935.58 2227.6 1939.15 2224.43 1942.71 2222.08C1946.28 2219.73 1949.46 2218.55 1952.24 2218.55C1954.07 2218.55 1955.55 2219.08 1956.68 2220.12C1957.81 2221.16 1958.38 2222.6 1958.38 2224.43C1958.38 2225.12 1958.25 2225.95 1957.99 2226.91L1956.03 2234.48C1958.47 2229.43 1961.56 2225.43 1965.3 2222.47C1969.04 2219.51 1972.87 2218.03 1976.79 2218.03C1979.92 2218.03 1982.58 2218.99 1984.75 2220.9C1987.01 2222.82 1988.15 2225.39 1988.15 2228.61C1988.15 2231.83 1987.1 2234.52 1985.01 2236.7C1982.92 2238.88 1980.44 2239.96 1977.57 2239.96C1975.57 2239.96 1973.74 2239.44 1972.09 2238.4C1970.43 2237.27 1969.17 2235.79 1968.3 2233.96C1969.35 2234.22 1970.3 2234.35 1971.17 2234.35C1972.65 2234.35 1973.79 2234 1974.57 2233.31C1975.44 2232.61 1975.87 2231.61 1975.87 2230.3C1975.87 2229.26 1975.57 2228.43 1974.96 2227.82C1974.44 2227.21 1973.7 2226.91 1972.74 2226.91C1970.13 2226.91 1967 2229.13 1963.34 2233.57C1959.77 2238.01 1955.9 2244.23 1951.72 2252.23L1945.59 2276.52C1944.8 2279.82 1942.58 2281.48 1938.93 2281.48Z" fill="white"/>
<path d="M1882.74 2282C1877.61 2282 1872.91 2280.56 1868.64 2277.69C1864.38 2274.82 1861.29 2271.16 1859.37 2266.73C1858.5 2263.77 1858.07 2260.5 1858.07 2256.93C1858.07 2249.1 1859.59 2242.27 1862.64 2236.44C1865.68 2230.52 1869.99 2225.99 1875.56 2222.86C1881.22 2219.64 1887.79 2218.03 1895.27 2218.03C1899.8 2218.03 1903.93 2218.99 1907.67 2220.9C1911.5 2222.73 1914.38 2225.25 1916.29 2228.48C1917.34 2231.78 1917.86 2235.7 1917.86 2240.22C1917.86 2246.23 1915.94 2251.02 1912.11 2254.58C1908.28 2258.15 1903.11 2259.94 1896.58 2259.94C1891.18 2259.94 1886.53 2258.85 1882.61 2256.67C1878.78 2254.41 1876.26 2251.41 1875.04 2247.67C1876.87 2248.97 1879.48 2250.02 1882.87 2250.8C1886.26 2251.5 1889.96 2251.84 1893.97 2251.84C1898.06 2251.84 1901.32 2250.71 1903.76 2248.45C1906.2 2246.1 1907.41 2243.01 1907.41 2239.18C1907.41 2236.48 1907.07 2233.87 1906.37 2231.35C1904.98 2229.95 1903.28 2228.82 1901.28 2227.95C1899.36 2227.08 1897.4 2226.65 1895.4 2226.65C1887.31 2226.65 1880.87 2229.65 1876.08 2235.66C1871.38 2241.66 1869.03 2249.8 1869.03 2260.07C1869.03 2262.94 1869.25 2265.77 1869.69 2268.55C1873.43 2271.77 1878.56 2273.38 1885.09 2273.38C1890.4 2273.38 1895.49 2272.38 1900.36 2270.38C1905.32 2268.38 1909.33 2265.68 1912.37 2262.29C1908.63 2268.29 1904.06 2273.08 1898.67 2276.65C1893.36 2280.22 1888.05 2282 1882.74 2282Z" fill="white"/>
<path d="M1828.23 2269.73C1828.06 2270.25 1827.97 2270.73 1827.97 2271.16C1827.97 2272.56 1828.93 2273.25 1830.84 2273.25C1833.89 2273.25 1837.85 2271.64 1842.72 2268.42C1839.16 2272.43 1835.59 2275.6 1832.02 2277.95C1828.45 2280.3 1825.27 2281.48 1822.49 2281.48C1820.57 2281.48 1819.09 2280.96 1818.05 2279.91C1817.01 2278.87 1816.48 2277.43 1816.48 2275.6C1816.48 2274.56 1816.57 2273.73 1816.74 2273.12L1818.05 2268.03C1811.7 2277.34 1804.86 2282 1797.55 2282C1793.9 2282 1790.63 2280.87 1787.76 2278.61C1784.89 2276.26 1782.19 2272.91 1779.67 2268.55C1778.8 2264.2 1778.36 2260.24 1778.36 2256.67C1778.36 2249.1 1779.67 2242.4 1782.28 2236.57C1784.98 2230.65 1788.46 2226.08 1792.72 2222.86C1796.99 2219.64 1801.43 2218.03 1806.04 2218.03C1809.61 2218.03 1812.87 2219.03 1815.83 2221.03C1818.88 2222.95 1821.36 2225.65 1823.27 2229.13C1819.96 2227.47 1816.61 2226.65 1813.22 2226.65C1808.87 2226.65 1804.86 2228 1801.21 2230.69C1797.55 2233.39 1794.64 2237.22 1792.46 2242.18C1790.37 2247.14 1789.33 2252.89 1789.33 2259.42C1789.33 2262.64 1789.59 2266.03 1790.11 2269.6C1791.51 2270.9 1792.77 2271.86 1793.9 2272.47C1795.03 2273.08 1796.42 2273.38 1798.08 2273.38C1802.51 2273.38 1806.82 2271.29 1811 2267.12C1815.18 2262.94 1819.05 2257.07 1822.62 2249.49L1836.59 2193.75C1836.76 2193.23 1836.85 2192.75 1836.85 2192.31C1836.85 2190.92 1835.89 2190.22 1833.98 2190.22C1830.93 2190.22 1826.97 2191.83 1822.1 2195.05C1825.67 2191.05 1829.23 2187.87 1832.8 2185.52C1836.37 2183.17 1839.55 2182 1842.33 2182C1844.16 2182 1845.64 2182.52 1846.77 2183.57C1847.9 2184.61 1848.47 2186.05 1848.47 2187.87C1848.47 2188.57 1848.34 2189.4 1848.08 2190.36L1828.23 2269.73Z" fill="white"/>
<path d="M1751.01 2273.25C1754.06 2273.25 1758.02 2271.64 1762.89 2268.42C1759.32 2272.43 1755.75 2275.6 1752.19 2277.95C1748.62 2280.3 1745.44 2281.48 1742.66 2281.48C1740.74 2281.48 1739.26 2280.96 1738.22 2279.91C1737.17 2278.87 1736.65 2277.43 1736.65 2275.6C1736.65 2274.56 1736.74 2273.73 1736.91 2273.12L1738.22 2268.03C1731.86 2277.34 1725.03 2282 1717.72 2282C1714.07 2282 1710.8 2280.87 1707.93 2278.61C1705.06 2276.26 1702.36 2272.9 1699.84 2268.55C1698.97 2264.2 1698.53 2260.24 1698.53 2256.67C1698.53 2248.93 1700.01 2242.14 1702.97 2236.31C1705.93 2230.48 1710.11 2225.99 1715.5 2222.86C1720.9 2219.64 1727.16 2218.03 1734.3 2218.03C1740.74 2218.03 1746.44 2219.34 1751.4 2221.95C1756.36 2224.47 1760.15 2227.95 1762.76 2232.39C1759.28 2230.56 1755.54 2229.17 1751.53 2228.21C1747.62 2227.17 1743.66 2226.65 1739.65 2226.65C1730.17 2226.65 1722.77 2229.56 1717.46 2235.39C1712.15 2241.23 1709.5 2249.23 1709.5 2259.42C1709.5 2262.64 1709.76 2266.03 1710.28 2269.6C1711.67 2270.9 1712.94 2271.86 1714.07 2272.47C1715.2 2273.08 1716.59 2273.38 1718.24 2273.38C1722.68 2273.38 1726.99 2271.29 1731.17 2267.12C1735.35 2262.94 1739.22 2257.07 1742.79 2249.49L1745.27 2239.7C1746.05 2236.31 1748.23 2234.61 1751.79 2234.61C1754.67 2234.61 1756.1 2235.74 1756.1 2238.01C1756.1 2238.27 1756.02 2238.83 1755.84 2239.7L1748.4 2269.73C1748.23 2270.25 1748.14 2270.73 1748.14 2271.16C1748.14 2272.56 1749.1 2273.25 1751.01 2273.25Z" fill="white"/>
<path d="M1673.91 2212.29C1670.34 2219.16 1667.47 2226.87 1665.29 2235.39C1663.46 2242.97 1662.55 2249.41 1662.55 2254.72C1662.55 2260.55 1663.6 2264.99 1665.68 2268.03C1667.86 2271.08 1670.95 2272.6 1674.95 2272.6C1679.39 2272.6 1683.61 2270.86 1687.62 2267.38C1684.92 2272.08 1681.78 2275.69 1678.22 2278.21C1674.65 2280.74 1670.86 2282 1666.86 2282C1661.64 2282 1657.55 2279.82 1654.59 2275.47C1651.63 2271.12 1650.15 2265.03 1650.15 2257.2C1650.15 2251.02 1651.11 2244.1 1653.02 2236.44C1655.81 2225.39 1659.68 2216.03 1664.64 2208.37L1660.07 2205.63C1655.81 2202.93 1652.02 2200.89 1648.71 2199.49C1645.41 2198.1 1641.53 2197.41 1637.09 2197.41C1629.61 2197.41 1623.73 2199.97 1619.47 2205.11C1615.21 2210.24 1612.94 2216.81 1612.68 2224.82C1618.51 2221.6 1625.91 2215.86 1634.87 2207.59H1639.05L1631.35 2238.92C1636.83 2237.88 1641.92 2235.61 1646.62 2232.13C1643.93 2236.31 1641.14 2239.66 1638.27 2242.18C1635.48 2244.71 1632.44 2246.49 1629.13 2247.54L1623.91 2268.68C1622.78 2273.38 1622.21 2276.78 1622.21 2278.87C1622.21 2279.56 1622.3 2280.17 1622.47 2280.7H1607.85C1608.81 2279.48 1609.59 2278.08 1610.2 2276.52C1610.81 2274.95 1611.55 2272.34 1612.42 2268.68L1617.51 2248.19C1610.38 2246.97 1605.68 2243.1 1603.41 2236.57C1600.11 2237.61 1596.75 2238.14 1593.36 2238.14C1588.57 2238.14 1584.96 2237.27 1582.52 2235.53C1580.17 2233.7 1579 2231.17 1579 2227.95C1579 2225.34 1579.61 2222.82 1580.83 2220.38C1582.13 2217.86 1583.83 2215.86 1585.92 2214.38C1588.09 2212.81 1590.44 2212.03 1592.97 2212.03C1595.23 2212.03 1596.97 2212.64 1598.19 2213.85C1599.41 2215.07 1600.02 2216.64 1600.02 2218.55C1600.02 2219.34 1599.97 2219.95 1599.89 2220.38C1598.93 2218.64 1597.58 2217.77 1595.84 2217.77C1594.19 2217.77 1592.75 2218.38 1591.53 2219.6C1590.4 2220.73 1589.84 2222.25 1589.84 2224.17C1589.84 2225.73 1590.49 2226.95 1591.79 2227.82C1593.19 2228.61 1595.23 2229 1597.93 2229C1599.41 2229 1600.85 2228.87 1602.24 2228.61V2228.35C1602.24 2221.12 1603.8 2214.42 1606.94 2208.24C1610.16 2202.06 1614.6 2197.14 1620.25 2193.49C1625.91 2189.83 1632.31 2188.01 1639.44 2188.01C1644.75 2188.01 1649.23 2188.88 1652.89 2190.62C1656.55 2192.27 1660.55 2194.71 1664.9 2197.93C1666.99 2199.49 1668.6 2200.63 1669.73 2201.32C1673.39 2197.06 1677.3 2193.79 1681.48 2191.53C1685.74 2189.18 1690.1 2188.01 1694.54 2188.01C1698.1 2188.01 1700.8 2188.75 1702.63 2190.23C1704.54 2191.7 1705.5 2193.75 1705.5 2196.36C1705.5 2201.58 1703.33 2205.76 1698.97 2208.89C1694.71 2212.03 1689.44 2213.59 1683.18 2213.59C1680.04 2213.59 1676.95 2213.16 1673.91 2212.29ZM1691.92 2195.58C1687.57 2195.58 1683 2198.8 1678.22 2205.24C1680.04 2205.76 1682.05 2206.02 1684.22 2206.02C1687.88 2206.02 1690.71 2205.28 1692.71 2203.8C1694.71 2202.32 1695.71 2200.54 1695.71 2198.45C1695.71 2196.54 1694.45 2195.58 1691.92 2195.58ZM1623.39 2225.73C1620.25 2227.82 1616.95 2229.87 1613.46 2231.87C1614.51 2235.18 1616.64 2237.4 1619.86 2238.53L1620.25 2236.96C1621.21 2232.96 1622.39 2229.3 1623.78 2226L1623.39 2225.73Z" fill="white"/>
<path d="M5618.46 1165.48C5730.19 1253.28 5836.56 1347.69 5937 1448.21" stroke="#263238" stroke-width="0.75" stroke-linecap="round" stroke-linejoin="round"/>
<path d="M5497.68 1074.64C5518.79 1089.87 5539.9 1105.27 5560.66 1121.01" stroke="#263238" stroke-width="0.75" stroke-linecap="round" stroke-linejoin="round"/>
<path d="M5377.08 991.76C5398.77 1005.95 5420.34 1020.48 5441.79 1035.36" stroke="#263238" stroke-width="0.75" stroke-linecap="round" stroke-linejoin="round"/>
<path d="M4491.87 573.031C4778.39 662.156 5052.29 787.705 5306.83 946.599" stroke="#263238" stroke-width="0.75" stroke-linecap="round" stroke-linejoin="round"/>
<path d="M4302.92 519.739C4337.53 528.621 4372.42 537.965 4407.6 547.77" stroke="#263238" stroke-width="0.75" stroke-linecap="round" stroke-linejoin="round"/>
<path d="M4108.44 476.655C4146.5 483.922 4184.45 491.882 4222.29 500.533" stroke="#263238" stroke-width="0.75" stroke-linecap="round" stroke-linejoin="round"/>
<path d="M3935.23 447.76C3968.11 452.489 4000.87 457.565 4033.51 462.986" stroke="#263238" stroke-width="0.75" stroke-linecap="round" stroke-linejoin="round"/>
<path d="M2891.7 454.68C3212.39 404.734 3538.4 398.912 3860.66 437.378" stroke="#263238" stroke-width="0.75" stroke-linecap="round" stroke-linejoin="round"/>
<path d="M2748.95 479.77C2778.37 474.06 2807.96 468.523 2837.37 463.505" stroke="#263238" stroke-width="0.75" stroke-linecap="round" stroke-linejoin="round"/>
<path d="M2610.36 510.05C2639.95 502.955 2669.36 496.38 2699.12 490.151" stroke="#263238" stroke-width="0.75" stroke-linecap="round" stroke-linejoin="round"/>
<path d="M2440.1 555.383C2470.2 546.559 2500.31 538.08 2530.59 530.121" stroke="#263238" stroke-width="0.75" stroke-linecap="round" stroke-linejoin="round"/>
<path d="M1410.4 1050.42C1696.9 849.581 2011.84 692.753 2344.76 585.144" stroke="#263238" stroke-width="0.75" stroke-linecap="round" stroke-linejoin="round"/>
<path d="M1271.98 1153.02C1298.97 1132.14 1326.26 1111.61 1353.82 1091.42" stroke="#263238" stroke-width="0.75" stroke-linecap="round" stroke-linejoin="round"/>
<path d="M1131.83 1267.22C1161.42 1241.61 1191.52 1216.7 1221.8 1192.3" stroke="#263238" stroke-width="0.75" stroke-linecap="round" stroke-linejoin="round"/>
<path d="M937 1448.21C977.604 1407.6 1018.9 1368.21 1060.89 1330.03" stroke="#263238" stroke-width="0.75" stroke-linecap="round" stroke-linejoin="round"/>
<path d="M5174.07 247.652H4842.03C4712.07 247.652 4606.71 353.008 4606.71 482.971V815.012C4606.71 944.975 4712.07 1050.33 4842.03 1050.33H5174.07C5304.04 1050.33 5409.39 944.975 5409.39 815.012V482.971C5409.39 353.008 5304.04 247.652 5174.07 247.652Z" fill="#ECECEC" stroke="#263238" stroke-width="0.75" stroke-linecap="round" stroke-linejoin="round"/>
<path d="M4800.81 823.687L4804.27 818.873L4967.17 509.839L4967.52 506.568L4895.71 371.693C4894.4 369.227 4892.34 367.236 4889.83 366.003C4887.33 364.77 4884.49 364.356 4881.74 364.821C4878.98 365.286 4876.44 366.606 4874.48 368.594C4872.51 370.582 4871.22 373.137 4870.79 375.898L4800.81 823.687Z" fill="#FFC24A"/>
<path d="M4802.84 820.031L4805.44 814.952L4966.66 509.127L4895.04 373.724C4893.86 371.37 4891.95 369.461 4889.59 368.284C4887.23 367.108 4884.56 366.726 4881.97 367.198C4879.38 367.669 4877.01 368.967 4875.21 370.898C4873.42 372.829 4872.3 375.289 4872.03 377.909L4802.84 820.031Z" fill="#FFA712"/>
<path d="M5019.86 608.577L5073.32 553.734L5019.84 451.745C5018.66 449.55 5016.91 447.715 5014.78 446.436C5012.64 445.157 5010.2 444.481 5007.7 444.481C5005.21 444.481 5002.77 445.157 5000.63 446.436C4998.5 447.715 4996.75 449.55 4995.57 451.745L4966.99 506.223V510.874L5019.86 608.577Z" fill="#F4BD62"/>
<path d="M5018.91 606.343L5070.89 553.125L5018.91 454C5018.06 451.854 5016.6 450 5014.72 448.662C5012.84 447.323 5010.62 446.558 5008.31 446.457C5006 446.356 5003.72 446.924 5001.73 448.093C4999.74 449.262 4998.13 450.982 4997.09 453.045L4968.37 508.478L4967.52 511.301L5018.91 606.343Z" fill="#FFA50E"/>
<path d="M4800.85 823.707L4802.42 822.123L4808.08 819.827L5016.49 612.193L5019.13 605.002L4967.15 505.918L4800.85 823.707Z" fill="#F6820C"/>
<path d="M5026.53 928.419L5215.19 823.22L5161.28 491.497C5160.89 489.158 5159.87 486.971 5158.32 485.176C5156.77 483.381 5154.76 482.048 5152.5 481.321C5150.25 480.595 5147.84 480.505 5145.53 481.06C5143.23 481.615 5141.12 482.795 5139.44 484.469L4800.81 823.687L4988.36 928.398C4994.19 931.652 5000.75 933.36 5007.43 933.36C5014.11 933.36 5020.67 931.652 5026.5 928.398" fill="#FDE068"/>
<path d="M5213.46 822.346L5160 493.121C5159.9 490.884 5159.15 488.726 5157.83 486.919C5156.51 485.112 5154.68 483.738 5152.57 482.97C5150.47 482.203 5148.19 482.076 5146.01 482.607C5143.84 483.137 5141.87 484.301 5140.36 485.951L4802.84 823.057L4988.32 926.651C4994.1 929.878 5000.61 931.572 5007.24 931.572C5013.86 931.572 5020.38 929.878 5026.16 926.651L5213.46 822.346Z" fill="#FCCA3F"/>
<path d="M5026.53 925.249C5020.69 928.503 5014.13 930.211 5007.45 930.211C5000.77 930.211 4994.21 928.503 4988.38 925.249L4802.36 822.103L4800.81 823.687L4988.36 928.398C4994.19 931.651 5000.75 933.359 5007.43 933.359C5014.11 933.359 5020.67 931.651 5026.5 928.398L5215.19 823.22L5214.72 820.376L5026.53 925.249Z" fill="#EEAB37"/>
<path d="M3505.26 1H3173.22C3043.26 1 2937.9 106.356 2937.9 236.318V568.36C2937.9 698.323 3043.26 803.678 3173.22 803.678H3505.26C3635.22 803.678 3740.58 698.323 3740.58 568.36V236.318C3740.58 106.356 3635.22 1 3505.26 1Z" fill="#ECECEC" stroke="#263238" stroke-width="0.75" stroke-linecap="round" stroke-linejoin="round"/>
<path d="M3357.06 153L3110 400.059L3186.47 476.529L3510 153H3357.06Z" fill="#47C5FB"/>
<path d="M3355.34 380.834L3223.05 513.116L3299.81 591.02L3376.14 514.692L3510 380.834H3355.34Z" fill="#47C5FB"/>
<path d="M3299.81 591.021L3357.92 649.127H3510L3376.14 514.692L3299.81 591.021Z" fill="#00569E"/>
<path d="M3222.19 513.977L3298.66 437.506L3376.14 514.693L3299.81 591.022L3222.19 513.977Z" fill="#00B5F8"/>
<path d="M3299.81 591.021L3363.37 569.93L3369.68 521.148L3299.81 591.021Z" fill="url(#paint0_linear_15850_4548)" fill-opacity="0.8"/>
<path d="M1863.6 247.652H1531.55C1401.59 247.652 1296.24 353.008 1296.24 482.971V815.012C1296.24 944.975 1401.59 1050.33 1531.55 1050.33H1863.6C1993.56 1050.33 2098.92 944.975 2098.92 815.012V482.971C2098.92 353.008 1993.56 247.652 1863.6 247.652Z" fill="#ECECEC" stroke="#263238" stroke-width="0.75" stroke-linecap="round" stroke-linejoin="round"/>
<g clip-path="url(#clip0_15850_4548)">
<path fill-rule="evenodd" clip-rule="evenodd" d="M1698 324C1877.5 324 2023 473.173 2023 657.22C2023 804.413 1929.98 929.279 1800.93 973.381C1784.45 976.664 1778.6 966.258 1778.6 957.385C1778.6 946.4 1778.99 910.521 1778.99 865.931C1778.99 834.861 1768.59 814.583 1756.92 804.248C1829.3 795.993 1905.35 767.813 1905.35 639.828C1905.35 603.428 1892.74 573.724 1871.87 550.389C1875.25 541.972 1886.4 508.078 1868.69 462.188C1868.69 462.188 1841.45 453.26 1779.41 496.355C1753.44 488.977 1725.63 485.265 1698 485.135C1670.37 485.265 1642.59 488.977 1616.65 496.355C1554.55 453.26 1527.25 462.188 1527.25 462.188C1509.6 508.078 1520.75 541.972 1524.09 550.389C1503.33 573.724 1490.62 603.428 1490.62 639.828C1490.62 767.488 1566.51 796.1 1638.69 804.518C1629.39 812.838 1620.98 827.515 1618.05 849.062C1599.53 857.577 1552.46 872.314 1523.47 821.386C1523.47 821.386 1506.28 789.37 1473.65 787.03C1473.65 787.03 1441.96 786.609 1471.44 807.279C1471.44 807.279 1492.73 817.516 1507.52 856.029C1507.52 856.029 1526.6 915.503 1617.01 895.353C1617.17 923.205 1617.47 949.455 1617.47 957.385C1617.47 966.193 1611.48 976.5 1595.27 973.413C1466.11 929.375 1373 804.445 1373 657.22C1373 473.173 1518.54 324 1698 324Z" fill="black"/>
</g>
<defs>
<linearGradient id="paint0_linear_15850_4548" x1="3575.92" y1="2407.21" x2="8602.8" y2="4218.65" gradientUnits="userSpaceOnUse">
<stop/>
<stop offset="1" stop-opacity="0"/>
</linearGradient>
<clipPath id="clip0_15850_4548">
<rect width="650" height="650" fill="white" transform="translate(1373 324)"/>
</clipPath>
</defs>
</svg>
