<svg width="80" height="80" viewBox="0 0 80 80" fill="none" xmlns="http://www.w3.org/2000/svg">
<path d="M8.42111 78.5966C12.2968 78.5966 15.4387 75.4548 15.4387 71.5791C15.4387 67.7034 12.2968 64.5615 8.42111 64.5615C4.54543 64.5615 1.40356 67.7034 1.40356 71.5791C1.40356 75.4548 4.54543 78.5966 8.42111 78.5966Z" stroke="#00A8E8" stroke-width="2.80702"/>
<path d="M39.2983 15.4384C43.174 15.4384 46.3158 12.2965 46.3158 8.42086C46.3158 4.54518 43.174 1.40332 39.2983 1.40332C35.4226 1.40332 32.2808 4.54518 32.2808 8.42086C32.2808 12.2965 35.4226 15.4384 39.2983 15.4384Z" stroke="#00A8E8" stroke-width="2.80702"/>
<path d="M70.1755 78.5966C74.0512 78.5966 77.193 75.4548 77.193 71.5791C77.193 67.7034 74.0512 64.5615 70.1755 64.5615C66.2998 64.5615 63.158 67.7034 63.158 71.5791C63.158 75.4548 66.2998 78.5966 70.1755 78.5966Z" stroke="#00A8E8" stroke-width="2.80702"/>
</svg>
